<?xml version="1.0" encoding="UTF-8"?>
<svg id="ARTWORK" xmlns="http://www.w3.org/2000/svg" xmlns:xlink="http://www.w3.org/1999/xlink" viewBox="0 0 259.12 278.93">
  <defs>
    <style>
      .cls-1 {
        fill: none;
      }

      .cls-2 {
        fill: #870c18;
      }

      .cls-3 {
        fill: #ab1927;
      }

      .cls-4 {
        fill: #b01b28;
      }

      .cls-5 {
        fill: #d3806f;
      }

      .cls-6 {
        fill: #9a1420;
      }

      .cls-7 {
        fill: #8c0f1b;
      }

      .cls-8 {
        fill: #91111d;
      }

      .cls-9 {
        fill: #d58a7a;
      }

      .cls-10 {
        fill: #800814;
      }

      .cls-11 {
        fill: #d78f7f;
      }

      .cls-12 {
        fill: #a81826;
      }

      .cls-13 {
        fill: #c33f3b;
      }

      .cls-14 {
        fill: #b81d2b;
      }

      .cls-15 {
        fill: #b31b29;
      }

      .cls-16 {
        fill: #890d19;
      }

      .cls-17 {
        fill: #a31724;
      }

      .cls-18 {
        fill: #bb1d2c;
      }

      .cls-19 {
        fill: #c8594d;
      }

      .cls-20 {
        clip-path: url(#clippath-1);
      }

      .cls-21 {
        clip-path: url(#clippath-3);
      }

      .cls-22 {
        clip-path: url(#clippath-4);
      }

      .cls-23 {
        clip-path: url(#clippath-2);
      }

      .cls-24 {
        clip-path: url(#clippath-5);
      }

      .cls-25 {
        fill: #cf7463;
      }

      .cls-26 {
        fill: #c75348;
      }

      .cls-27 {
        fill: #cb6859;
      }

      .cls-28 {
        fill: #d48777;
      }

      .cls-29 {
        fill: #d68c7d;
      }

      .cls-30 {
        fill: #d17d6c;
      }

      .cls-31 {
        fill: #9c1521;
      }

      .cls-32 {
        fill: #cd6c5d;
      }

      .cls-33 {
        fill: #ce7060;
      }

      .cls-34 {
        fill: #a01623;
      }

      .cls-35 {
        fill: #b51c2a;
      }

      .cls-36 {
        fill: #d38272;
      }

      .cls-37 {
        fill: #d17a69;
      }

      .cls-38 {
        fill: #bd1e2d;
      }

      .cls-39 {
        fill: #820a16;
      }

      .cls-40 {
        fill: #7d0713;
      }

      .cls-41 {
        fill: #d07766;
      }

      .cls-42 {
        fill: #97131f;
      }

      .cls-43 {
        fill: #840b17;
      }

      .cls-44 {
        fill: #c95f51;
      }

      .cls-45 {
        fill: #ad1a27;
      }

      .cls-46 {
        fill: #94121e;
      }

      .cls-47 {
        fill: #d48474;
      }

      .cls-48 {
        fill: #cb6455;
      }

      .cls-49 {
        fill: #c54b42;
      }

      .cls-50 {
        fill: #a51825;
      }

      .cls-51 {
        fill: #8f101c;
      }

      .cls-52 {
        clip-path: url(#clippath);
      }
    </style>
    <clipPath id="clippath">
      <path class="cls-1" d="M30.26,68.58c11.28,52.48,22.54,104.95,33.8,157.41-.7-3.28,4.21-8.34,15.29-14.82L43.4,55.82c-9.52,5.6-13.74,9.96-13.14,12.75Z"/>
    </clipPath>
    <clipPath id="clippath-1">
      <path class="cls-1" d="M181.33,14.89c-6.15,0-14.44.9-24.76,2.73-37.91,6.71-88.6,23.82-113.17,38.21l35.95,155.34c28.62-16.75,87.59-36.7,131.73-44.53,26.24-4.64,41.27-4,43.27.8-20.21-49.71-40.4-99.43-60.64-149.16-.87-2.21-5.04-3.39-12.22-3.39h-.16Z"/>
    </clipPath>
    <clipPath id="clippath-2">
      <path class="cls-1" d="M48.17,40.95c.07-.05.16-.1.23-.17-.07.07-.16.12-.23.17ZM32.52,54.49c-.5.75-2.14,3.53-2.73,7.28-.47,3.01.1,5.37.47,6.83-.61-2.81,3.61-7.18,13.14-12.77-1.91-6.15.16-12.04,4.78-14.87-7.37,4.47-12.08,7.96-15.66,13.54ZM30.33,68.8c-.03-.07-.05-.14-.07-.21.02.07.03.14.07.21Z"/>
    </clipPath>
    <clipPath id="clippath-3">
      <path class="cls-1" d="M180.72,31.46c-24.55,14.39-75.24,31.5-113.17,38.21-23.25,4.17-36.32,3.42-37.29-1.09,0,2.45,1.2,5.53,1.7,7.89,5.07,23.6,10.15,47.21,15.19,70.84l16.91,78.68c1.15,5.25,16.33,6.1,43.42,1.3,44.14-7.84,103.11-27.78,131.73-44.52,11.64-6.81,16.46-12.06,15.13-15.34-20.21-49.71-40.4-99.43-60.64-149.16,1.18,2.83-2.97,7.32-12.98,13.19Z"/>
    </clipPath>
    <clipPath id="clippath-4">
      <path class="cls-1" d="M150.45,6.95c-28.25,4.33-75.31,18.51-102.05,33.83-4.74,2.8-6.95,8.79-5,15.05,24.57-14.39,75.26-31.5,113.17-38.21,22.88-4.08,35.88-3.44,37.25.89-1.75-5.77-6.71-10.13-13.59-11.97-3.49-.9-7.44-1.27-11.47-1.27-6.2,0-12.74.82-18.31,1.69Z"/>
    </clipPath>
    <clipPath id="clippath-5">
      <path class="cls-1" d="M145.74,7.73c-21.88,3.94-42.21,10.36-52.35,13.8-1.55.59-3.61,1.25-5.16,1.77-3.34,1.18-6.65,2.43-9.97,3.68-.42.16-4.22,1.6-9.44,3.82-9.9,4.21-16.56,7.75-20.42,9.97-5.18,3.16-11.66,7.14-15.69,13.41-2.97,4.59-3.86,9.9-2.38,14.61,1.34,4.31,14.32,4.95,37.22.87,37.93-6.71,88.62-23.82,113.17-38.21,9.77-5.73,13.94-10.13,13.1-12.96-.66-1.79-1.81-5.06-5.72-8.13-3.63-2.9-7.75-3.82-9.94-4.33-1.77-.36-4.67-.8-9.14-.8-5.32,0-12.84.61-23.28,2.48ZM52.28,39.37c19.84-11.59,60.75-25.44,91.38-30.86,30.62-5.46,39.32-.43,19.5,11.17-19.86,11.62-60.76,25.42-91.36,30.88-8.39,1.49-15.13,2.21-20.1,2.21-13.15,0-13.8-4.95.59-13.4Z"/>
    </clipPath>
  </defs>
  <g class="cls-52">
    <path class="cls-40" d="M64.06,226.01L30.27,68.6c-.61-2.83,3.6-7.18,13.12-12.74l35.95,155.31c-11.09,6.48-15.97,11.52-15.27,14.84Z"/>
  </g>
  <path class="cls-46" d="M79.34,211.17c-28.6,16.75-16.02,23.96,28.13,16.12,44.14-7.84,103.13-27.77,131.75-44.52,28.62-16.75,16.02-23.98-28.13-16.13-44.14,7.85-103.14,27.77-131.75,44.52Z"/>
  <g class="cls-20">
    <path class="cls-40" d="M79.34,211.17L43.4,55.84c.38-.23.8-.45,1.2-.69l36.14,155.2c-.47.28-.94.54-1.41.82Z"/>
    <path class="cls-10" d="M80.76,210.35L44.6,55.14c1.74-.97,3.58-1.96,5.51-2.97l37.06,154.72c-2.26,1.15-4.41,2.33-6.41,3.46Z"/>
    <path class="cls-39" d="M87.18,206.89L50.11,52.17c1.56-.82,3.2-1.6,4.9-2.43l37.86,154.32c-1.98.96-3.89,1.89-5.7,2.83Z"/>
    <path class="cls-43" d="M92.88,204.06L55.01,49.74c1.49-.73,3.06-1.44,4.64-2.16l38.63,153.95c-1.86.83-3.65,1.69-5.4,2.52Z"/>
    <path class="cls-2" d="M98.27,201.54L59.66,47.59c1.48-.7,2.99-1.36,4.57-2.03l39.36,153.62c-1.81.8-3.58,1.58-5.32,2.36Z"/>
    <path class="cls-16" d="M103.6,199.19L64.21,45.57c1.51-.66,3.04-1.3,4.6-1.96l40.14,153.33c-1.84.76-3.6,1.49-5.35,2.26Z"/>
    <path class="cls-7" d="M108.95,196.92L68.82,43.61c1.51-.64,3.09-1.27,4.67-1.91l40.89,153.01c-1.86.75-3.65,1.46-5.44,2.21Z"/>
    <path class="cls-51" d="M114.39,194.72L73.49,41.71c1.58-.61,3.2-1.23,4.81-1.86l41.67,152.7c-1.88.71-3.75,1.44-5.58,2.17Z"/>
    <path class="cls-8" d="M119.98,192.54L78.33,39.84c1.62-.63,3.28-1.23,4.97-1.86l42.52,152.39c-1.98.71-3.93,1.42-5.84,2.17Z"/>
    <path class="cls-46" d="M125.8,190.36L83.31,37.97c1.72-.64,3.46-1.25,5.21-1.89l43.37,152.08c-2.07.75-4.1,1.48-6.1,2.21Z"/>
    <path class="cls-42" d="M131.9,188.16L88.53,36.08c1.82-.66,3.67-1.3,5.51-1.91l44.27,151.76c-2.15.75-4.29,1.46-6.41,2.22Z"/>
    <path class="cls-6" d="M138.32,185.93L94.06,34.17c1.91-.66,3.88-1.32,5.82-1.95l45.25,151.45c-2.29.75-4.57,1.51-6.81,2.26Z"/>
    <path class="cls-31" d="M145.12,183.66L99.89,32.21c2.12-.7,4.22-1.34,6.34-2.03l46.26,151.12c-2.45.78-4.93,1.58-7.37,2.36Z"/>
    <path class="cls-34" d="M152.49,181.3L106.23,30.2c2.45-.75,4.87-1.51,7.32-2.21l47.45,150.74c-2.85.83-5.68,1.7-8.51,2.57Z"/>
    <path class="cls-17" d="M160.99,178.74L113.55,27.99c4.01-1.18,8.04-2.33,12.08-3.41l49.44,150.18c-4.69,1.27-9.37,2.57-14.07,3.98Z"/>
    <path class="cls-50" d="M175.06,174.78L125.62,24.58c4.45-1.18,8.88-2.29,13.22-3.3l51.61,149.64c-5.06,1.16-10.2,2.47-15.4,3.86Z"/>
    <path class="cls-17" d="M190.45,170.92L138.84,21.28c4.6-1.08,9.12-2.05,13.52-2.9l53.8,149.19c-5.09.97-10.34,2.1-15.71,3.35Z"/>
    <path class="cls-34" d="M206.18,167.56L152.35,18.39c1.42-.28,2.83-.54,4.24-.78,1.27-.24,2.55-.45,3.77-.64l55.13,148.93c-1.44.23-2.9.5-4.41.75-1.62.3-3.25.59-4.9.92Z"/>
    <path class="cls-31" d="M215.49,165.9L160.34,16.95c2.07-.31,4.05-.63,5.93-.87l56.09,148.79c-2.17.3-4.47.64-6.86,1.03Z"/>
    <path class="cls-6" d="M222.37,164.87L166.26,16.08c1.65-.21,3.23-.42,4.73-.56l56.85,148.69c-1.72.17-3.56.4-5.47.66Z"/>
    <path class="cls-42" d="M227.85,164.21L170.99,15.52c1.37-.16,2.69-.28,3.94-.36l57.53,148.64c-1.48.1-3.01.24-4.62.42Z"/>
    <path class="cls-46" d="M232.46,163.78L174.93,15.15c1.22-.09,2.35-.16,3.44-.19l58.09,148.6c-1.29.05-2.61.12-4,.23Z"/>
    <path class="cls-8" d="M236.47,163.55L178.36,14.95c1.08-.05,2.09-.07,3.04-.07l58.57,148.58c-1.1,0-2.28.03-3.51.09Z"/>
    <path class="cls-51" d="M239.98,163.48L181.4,14.88c.96,0,1.84.02,2.69.05l59.03,148.62c-.99-.03-2.05-.07-3.15-.07Z"/>
    <path class="cls-7" d="M243.14,163.55L184.11,14.94c.83.03,1.63.1,2.4.19l59.43,148.64c-.89-.09-1.79-.16-2.8-.21Z"/>
    <path class="cls-16" d="M245.92,163.76L186.51,15.12c.75.07,1.48.21,2.12.31l59.79,148.71c-.76-.16-1.6-.28-2.5-.38Z"/>
    <path class="cls-2" d="M248.41,164.13L188.64,15.43c.69.14,1.3.31,1.84.49l60.1,148.77c-.66-.21-1.39-.4-2.17-.56Z"/>
    <path class="cls-43" d="M250.57,164.68L190.5,15.91c.59.21,1.11.42,1.56.7l60.31,148.86c-.5-.3-1.09-.56-1.81-.78Z"/>
    <path class="cls-39" d="M252.38,165.46L192.05,16.59c.5.29.92.59,1.22.96l60.54,149.04c-.35-.4-.83-.78-1.42-1.11Z"/>
    <path class="cls-10" d="M253.79,166.58L193.27,17.55c.19.24.35.49.45.73l60.59,149.17c-.12-.31-.28-.59-.52-.87Z"/>
  </g>
  <g class="cls-23">
    <path class="cls-3" d="M30.33,68.81c-3.86-14.77,10.95-23.7,18.07-28.01-4.74,2.78-6.95,8.78-5,15.05-9.77,5.72-13.95,10.13-13.07,12.96Z"/>
    <path class="cls-10" d="M43.4,55.85c-9.77,5.72-13.95,10.13-13.08,12.96-.09-.4-.24-.96-.33-1.37-.07-.4-.19-.99-.24-1.41l-.12-1.41c0-.43,0-1.01.02-1.44l.17-1.39c.07-.43.16-1.03.24-1.48l.4-1.39c.16-.45.36-1.06.54-1.49l.64-1.41c.28-.47.59-1.1.87-1.53l.97-1.48c.38-.49.92-1.2,1.34-1.7l1.44-1.55c.7-.68,1.67-1.58,2.42-2.24l2.17-1.74c2.94-2.12,3.63-2.61,7.56-5-4.74,2.8-6.93,8.79-5,15.07Z"/>
    <path class="cls-40" d="M43.21,55.21c-.17.66-1.08,1.16-1.55,1.67-8.51,5.21-12.16,9.26-11.35,11.92-.1-.4-.24-.94-.35-1.36-.09-.42-.17-.99-.23-1.41l-.1-1.41c0-.43,0-1.03.02-1.46l.14-1.39c.07-.42.16-1.03.26-1.46l.4-1.41c.16-.45.36-1.04.54-1.48l.66-1.41c.26-.47.57-1.09.85-1.55l.96-1.44c.42-.52.94-1.22,1.37-1.72l1.42-1.55c.71-.7,1.67-1.6,2.38-2.26l2.19-1.72c2.94-2.12,3.65-2.62,7.59-5-4.6,2.69-6.83,8.38-5.21,14.42Z"/>
  </g>
  <g class="cls-21">
    <path class="cls-40" d="M254.34,167.45L193.73,18.29c.97,2.4-1.89,6.01-8.93,10.65l59.15,150.89c8.18-5.39,11.52-9.59,10.39-12.39Z"/>
    <path class="cls-10" d="M243.95,179.84L184.8,28.93c-1.23.82-2.59,1.65-4.08,2.52l-.35.21,58.4,151.38c.16-.1.3-.17.43-.28,1.74-1.01,3.3-1.96,4.74-2.92Z"/>
    <path class="cls-39" d="M238.77,183.03L180.36,31.68c-1.29.75-2.59,1.46-3.98,2.21l57.74,151.73c1.63-.87,3.2-1.74,4.66-2.59Z"/>
    <path class="cls-43" d="M234.13,185.61l-57.76-151.71c-1.23.64-2.5,1.3-3.81,1.96l57.13,152.06c1.53-.78,3.02-1.56,4.43-2.31Z"/>
    <path class="cls-2" d="M229.7,187.91l-57.15-152.04c-1.16.59-2.4,1.18-3.65,1.79l56.52,152.34c1.46-.69,2.88-1.37,4.27-2.09Z"/>
    <path class="cls-16" d="M225.42,190.01l-56.54-152.35c-1.18.59-2.4,1.15-3.65,1.72l55.93,152.61c1.46-.66,2.87-1.32,4.26-1.98Z"/>
    <path class="cls-7" d="M221.16,191.99l-55.93-152.61c-1.2.56-2.45,1.11-3.72,1.65l55.34,152.89c1.46-.66,2.9-1.29,4.31-1.93Z"/>
    <path class="cls-51" d="M216.85,193.92l-55.33-152.87c-1.23.52-2.47,1.06-3.74,1.62l54.7,153.14c1.48-.61,2.94-1.25,4.36-1.88Z"/>
    <path class="cls-8" d="M212.49,195.81l-54.7-153.17c-1.27.54-2.52,1.06-3.81,1.58l54.09,153.41c1.48-.61,2.95-1.22,4.41-1.82Z"/>
    <path class="cls-46" d="M208.06,197.65l-54.08-153.43c-1.29.54-2.59,1.06-3.89,1.58l53.45,153.66c1.55-.61,3.04-1.2,4.52-1.81Z"/>
    <path class="cls-42" d="M203.56,199.46l-53.45-153.67c-1.3.52-2.62,1.03-3.96,1.53l52.81,153.92c1.56-.59,3.09-1.18,4.6-1.77Z"/>
    <path class="cls-6" d="M198.98,201.24l-52.82-153.92c-1.29.49-2.59.99-3.94,1.48l52.16,154.16c1.56-.57,3.08-1.15,4.6-1.72Z"/>
    <path class="cls-31" d="M194.38,202.97l-52.16-154.16c-1.25.47-2.52.94-3.81,1.39l51.54,154.39c1.48-.54,2.97-1.08,4.43-1.62Z"/>
    <path class="cls-34" d="M189.95,204.59l-51.54-154.39c-1.23.45-2.45.9-3.74,1.32l50.93,154.6c1.46-.49,2.92-1.01,4.34-1.53Z"/>
    <path class="cls-17" d="M185.61,206.14l-50.93-154.61c-1.13.42-2.28.8-3.42,1.2l50.37,154.82c1.34-.47,2.66-.94,3.98-1.41Z"/>
    <path class="cls-50" d="M181.62,207.53l-50.36-154.8c-1.11.38-2.19.75-3.32,1.13l49.83,154.98c1.3-.43,2.57-.85,3.84-1.3Z"/>
    <path class="cls-12" d="M177.79,208.83L127.95,53.83c-1.03.35-2.03.7-3.08,1.04l49.31,155.13c1.2-.38,2.41-.78,3.6-1.18Z"/>
    <path class="cls-3" d="M174.21,210.02L124.88,54.86c-1.01.33-2,.66-3.02.99l48.81,155.31c1.16-.35,2.36-.75,3.54-1.13Z"/>
    <path class="cls-45" d="M170.66,211.17L121.85,55.84l-2.95.94,48.36,155.46c1.13-.35,2.28-.71,3.41-1.08Z"/>
    <path class="cls-4" d="M167.25,212.26L118.91,56.79c-1.01.3-2,.63-3.02.92l47.85,155.62c1.16-.35,2.35-.71,3.51-1.08Z"/>
    <path class="cls-15" d="M163.72,213.34L115.89,57.7c-1.08.35-2.19.68-3.27,1.01l47.32,155.78c1.25-.36,2.54-.75,3.79-1.15Z"/>
    <path class="cls-35" d="M159.94,214.5L112.62,58.71c-1.27.38-2.52.75-3.77,1.11l46.67,155.97c1.46-.42,2.94-.85,4.41-1.29Z"/>
    <path class="cls-14" d="M155.53,215.8L108.84,59.82c-1.72.5-3.48,1.01-5.16,1.49l45.82,156.21c2.02-.57,4.01-1.13,6.03-1.72Z"/>
    <path class="cls-18" d="M149.5,217.53L103.66,61.31c-3.18.87-6.36,1.74-9.51,2.52l44.27,156.65c3.68-.94,7.37-1.91,11.07-2.95Z"/>
    <path class="cls-14" d="M138.44,220.49L94.16,63.86c-2.17.56-4.34,1.08-6.48,1.6l43.21,156.89c2.52-.59,5.02-1.22,7.54-1.86Z"/>
    <path class="cls-35" d="M130.9,222.35l-43.21-156.89c-1.56.38-3.13.75-4.67,1.1l42.45,157.08c1.81-.42,3.63-.83,5.44-1.29Z"/>
    <path class="cls-15" d="M125.46,223.63l-42.43-157.08c-1.46.33-2.9.66-4.31.96l41.7,157.22c1.69-.35,3.35-.73,5.04-1.09Z"/>
    <path class="cls-4" d="M120.43,224.74l-41.74-157.24c-1.53.33-3.04.66-4.54.96l40.99,157.38c1.74-.33,3.49-.71,5.28-1.1Z"/>
    <path class="cls-45" d="M115.16,225.83l-40.99-157.39c-1.69.35-3.35.66-4.97.96l40.19,157.55c1.89-.33,3.82-.71,5.77-1.11Z"/>
    <path class="cls-3" d="M109.39,226.94l-40.19-157.55c-.56.1-1.09.21-1.65.3-1.18.23-2.35.43-3.44.61l39.34,157.69c1.3-.23,2.64-.45,4.01-.68.64-.12,1.3-.24,1.93-.36Z"/>
    <path class="cls-12" d="M103.43,227.98l-39.34-157.69c-1.67.28-3.25.52-4.83.75l38.58,157.81c1.81-.26,3.68-.54,5.6-.87Z"/>
    <path class="cls-50" d="M97.83,228.84L59.26,71.03c-1.46.21-2.87.38-4.24.56l37.86,157.9c1.6-.19,3.21-.4,4.95-.64Z"/>
    <path class="cls-17" d="M92.88,229.48L55.01,71.6c-1.27.12-2.5.26-3.72.36l37.27,157.98c1.36-.14,2.81-.3,4.31-.47Z"/>
    <path class="cls-34" d="M88.57,229.94L51.29,71.99c-1.11.1-2.19.16-3.23.24l36.72,158c1.22-.07,2.48-.17,3.79-.3Z"/>
    <path class="cls-31" d="M84.78,230.23L48.07,72.25c-.99.05-1.95.1-2.85.14l36.26,158.02c1.04-.03,2.15-.1,3.3-.17Z"/>
    <path class="cls-6" d="M81.47,230.4L45.21,72.39c-.9.03-1.76.05-2.54.05l35.81,158.02c.96,0,1.95-.02,2.99-.05Z"/>
    <path class="cls-42" d="M78.49,230.45L42.66,72.42c-.8,0-1.58,0-2.31-.03l35.45,158.02c.87.03,1.76.05,2.69.05Z"/>
    <path class="cls-46" d="M75.81,230.4L40.36,72.39c-.75-.02-1.42-.07-2.09-.16l35.13,158.02c.73.07,1.55.12,2.4.16Z"/>
    <path class="cls-8" d="M73.4,230.25L38.28,72.27c-.66-.09-1.29-.16-1.84-.23l34.8,157.95c.68.1,1.37.19,2.16.26Z"/>
    <path class="cls-51" d="M71.24,230L36.44,72.03c-.61-.09-1.13-.21-1.67-.31l34.56,157.91c.57.14,1.22.26,1.91.36Z"/>
    <path class="cls-7" d="M69.32,229.63L34.78,71.7c-.54-.12-1.01-.26-1.44-.42l34.3,157.86c.5.17,1.06.33,1.69.49Z"/>
    <path class="cls-16" d="M67.64,229.14L33.33,71.28c-.45-.16-.85-.33-1.22-.54l34.11,157.78c.42.23.9.43,1.42.63Z"/>
    <path class="cls-2" d="M66.22,228.51L32.13,70.74c-.4-.19-.73-.42-.99-.68l33.95,157.65c.3.28.69.54,1.13.8Z"/>
    <path class="cls-43" d="M65.08,227.7L31.13,70.04c-.3-.26-.5-.56-.66-.87l33.83,157.48c.17.36.42.73.78,1.04Z"/>
    <path class="cls-39" d="M64.3,226.66L30.47,69.16c-.1-.17-.17-.38-.21-.57l33.81,157.41c.05.23.12.45.23.66Z"/>
  </g>
  <g class="cls-22">
    <path class="cls-3" d="M48.4,40.79c10.81-6.08,131.8-59.91,145.37-22.36-1.3-4.26-14.32-4.88-37.2-.83-37.93,6.74-88.6,23.87-113.19,38.26-1.91-6.29.3-12.28,5.02-15.07Z"/>
    <path class="cls-3" d="M156.58,17.61c-6.36,1.11-13.08,2.55-19.97,4.21-1.69.36-3.89.85-5.58,1.22q-7.33,1.96-10.39,2.92c-29.64,8.27-59.93,19.76-77.25,29.9-1.95-6.29.28-12.27,5-15.05,1.04-.59,2.43-1.36,3.48-1.95,1.22-.64,2.85-1.49,4.08-2.14l3.98-1.95c1.34-.59,3.06-1.42,4.38-2l4.43-1.95c1.41-.57,3.28-1.37,4.69-1.95l4.78-1.88c1.49-.57,3.46-1.34,4.97-1.88l5.02-1.81c1.56-.54,3.61-1.29,5.16-1.79l5.23-1.74c1.6-.5,3.81-.92,5.28-1.67l5.32-1.6c1.62-.45,3.84-.78,5.33-1.55l5.33-1.43c1.6-.42,3.7-1.01,5.3-1.39l5.25-1.25c1.55-.36,3.61-.83,5.2-1.18l5.07-1.04c1.51-.3,3.53-.68,5.06-.96l4.73-.8c5-.7,8.29-1.18,13.57-1.53l3.3-.12c3.79,0,4.48,0,7.52.28l2.26.31c.92.17,2.17.43,3.08.68l1.76.54c.57.21,1.39.5,1.96.76l1.42.71c.45.26,1.06.61,1.48.89l1.23.85c.35.31.82.7,1.2,1.03l.99.99c.28.35.68.78.96,1.13l.78,1.15c.24.36.54.87.73,1.23l.59,1.29c.16.4.38.96.5,1.39-1.34-4.33-14.35-4.97-37.22-.9Z"/>
    <path class="cls-12" d="M156.58,17.61c-3.37.59-6.86,1.27-10.39,2.03-.09.02-.19.02-.26.02-7.8,1.37-18.49,3.27-32.79,8.44-27.16,8.03-53.88,18.47-69.75,27.75-1.95-6.29.28-12.27,5-15.05,1.04-.59,2.43-1.36,3.48-1.95,1.22-.64,2.85-1.49,4.08-2.14l3.98-1.95c1.34-.59,3.06-1.42,4.38-2l4.43-1.95c1.41-.57,3.28-1.37,4.69-1.95l4.78-1.88c1.49-.57,3.46-1.34,4.97-1.88l5.02-1.81c1.56-.54,3.61-1.29,5.16-1.79l5.23-1.74c1.6-.5,3.81-.92,5.28-1.67l5.32-1.6c1.62-.45,3.84-.78,5.33-1.55l5.33-1.43c1.6-.42,3.7-1.01,5.3-1.39l5.25-1.25c1.55-.36,3.61-.83,5.2-1.18l5.07-1.04c1.51-.3,3.53-.68,5.06-.96l4.73-.8c5-.7,8.29-1.18,13.57-1.53l3.3-.12c3.79,0,4.48,0,7.52.28l2.26.31c.92.17,2.17.43,3.08.68l1.76.54c.57.21,1.39.5,1.96.76l1.42.71c.45.26,1.06.61,1.48.89l1.23.85c.35.31.82.7,1.2,1.03l.99.99c.28.35.68.78.96,1.13l.78,1.15c.24.36.54.87.73,1.23l.59,1.29c.16.4.38.96.5,1.39-1.34-4.33-14.35-4.97-37.22-.9Z"/>
    <path class="cls-50" d="M156.58,17.61c-.96.16-1.89.35-2.85.52-.19.02-.47.05-.66.07-6.31.87-25.54,3.53-45.37,11.55-25.25,7.77-49.5,17.43-64.31,26.1-1.95-6.29.28-12.27,5-15.05,1.04-.59,2.43-1.36,3.48-1.95,1.22-.64,2.85-1.49,4.08-2.14l3.98-1.95c1.34-.59,3.06-1.42,4.38-2l4.43-1.95c1.41-.57,3.28-1.37,4.69-1.95l4.78-1.88c1.49-.57,3.46-1.34,4.97-1.88l5.02-1.81c1.56-.54,3.61-1.29,5.16-1.79l5.23-1.74c1.6-.5,3.81-.92,5.28-1.67l5.32-1.6c1.62-.45,3.84-.78,5.33-1.55l5.33-1.43c1.6-.42,3.7-1.01,5.3-1.39l5.25-1.25c1.55-.36,3.61-.83,5.2-1.18l5.07-1.04c1.51-.3,3.53-.68,5.06-.96l4.73-.8c5-.7,8.29-1.18,13.57-1.53l3.3-.12c3.79,0,4.48,0,7.52.28l2.26.31c.92.17,2.17.43,3.08.68l1.76.54c.57.21,1.39.5,1.96.76l1.42.71c.45.26,1.06.61,1.48.89l1.23.85c.35.31.82.7,1.2,1.03l.99.99c.28.35.68.78.96,1.13l.78,1.15c.24.36.54.87.73,1.23l.59,1.29c.16.4.38.96.5,1.39-1.34-4.33-14.35-4.97-37.22-.9Z"/>
    <path class="cls-17" d="M160.31,16.97c-18.28,2.35-32.74,4.19-57.25,14.23-23.53,7.49-45.77,16.53-59.67,24.64-1.93-6.26.26-12.27,5.02-15.03,1.03-.59,2.4-1.37,3.44-1.96,1.23-.63,2.87-1.49,4.08-2.14l4.01-1.93c1.3-.61,3.04-1.42,4.38-2.02l4.43-1.93c1.41-.59,3.28-1.39,4.67-1.95l4.78-1.88c1.49-.57,3.47-1.34,4.97-1.89l5.06-1.81c1.53-.54,3.6-1.27,5.13-1.77l5.23-1.74c1.6-.5,3.81-.92,5.28-1.69l5.32-1.6c1.6-.45,3.84-.78,5.33-1.53l5.32-1.44c1.62-.42,3.72-.99,5.32-1.37l5.23-1.27c1.56-.35,3.65-.82,5.2-1.16l5.09-1.06c1.51-.3,3.54-.66,5.06-.94l4.74-.8c4.97-.71,8.25-1.2,13.54-1.53l3.34-.12c3.77,0,4.47,0,7.51.28l2.26.3c.94.19,2.17.43,3.09.68l1.74.54c.59.23,1.37.52,1.95.78l1.44.71c.45.24,1.06.59,1.49.89l1.2.85c.37.31.87.68,1.22,1.01l1.01,1.01c.26.33.66.76.92,1.11l.8,1.15c.23.38.56.89.75,1.27l.57,1.27c.16.4.38.94.5,1.37-1.27-4.08-12.91-4.88-33.48-1.53Z"/>
    <path class="cls-34" d="M165.69,16.16c-15.12,1.39-37.95,3.44-67.19,16.53-21.84,7.19-42.12,15.59-55.12,23.16-1.93-6.27.28-12.25,5.02-15.07,1.04-.56,2.41-1.34,3.44-1.91,1.25-.66,2.87-1.51,4.1-2.14l4-1.96c1.32-.59,3.06-1.41,4.38-2l4.43-1.93c1.42-.59,3.27-1.37,4.67-1.95l4.8-1.88c1.49-.57,3.48-1.34,4.95-1.89l5.06-1.81c1.53-.54,3.58-1.29,5.14-1.77l5.25-1.76c1.56-.49,3.77-.9,5.27-1.65l5.32-1.6c1.6-.47,3.86-.8,5.33-1.53l5.32-1.48c1.6-.38,3.7-.99,5.3-1.34l5.25-1.29c1.56-.33,3.65-.83,5.21-1.16l5.07-1.06c1.49-.3,3.53-.66,5.06-.94l4.71-.8c4.99-.73,8.31-1.2,13.57-1.53l3.32-.14c3.79,0,4.48,0,7.52.28l2.24.31c.96.17,2.17.43,3.11.68l1.74.54c.59.23,1.39.52,1.95.76l1.46.71c.43.26,1.04.61,1.48.89l1.2.87c.35.31.85.68,1.18.99l1.01,1.01c.3.35.7.78.96,1.13l.82,1.15c.19.38.5.85.73,1.25l.57,1.29c.14.4.36.94.5,1.37-1.13-3.7-10.91-4.73-28.11-2.35Z"/>
    <path class="cls-31" d="M170.09,15.6c-14.04.71-40.19,2.02-76.13,18.59-20.09,6.85-38.49,14.58-50.58,21.65-1.93-6.26.28-12.27,5.02-15.07,1.04-.56,2.42-1.34,3.44-1.93,1.23-.64,2.87-1.51,4.1-2.14l4-1.95c1.3-.59,3.06-1.43,4.38-2l4.43-1.95c1.41-.57,3.28-1.37,4.69-1.95l4.78-1.88c1.49-.56,3.46-1.32,4.95-1.86l5.04-1.82c1.55-.54,3.6-1.27,5.16-1.79l5.23-1.72c1.6-.52,3.79-.94,5.28-1.67l5.32-1.6c1.62-.47,3.86-.8,5.33-1.55l5.32-1.44c1.6-.42,3.7-.99,5.3-1.37l5.25-1.27c1.56-.35,3.65-.83,5.21-1.16l5.07-1.06c1.51-.28,3.53-.68,5.06-.96l4.71-.8c4.99-.7,8.31-1.18,13.57-1.51l3.32-.14c3.79,0,4.48,0,7.52.28l2.24.31c.94.19,2.17.43,3.11.68l1.72.54c.61.21,1.41.52,1.96.76l1.44.71c.43.26,1.06.61,1.49.89l1.18.85c.38.31.87.69,1.22,1.03l.97,1.01c.33.31.7.76.97,1.11l.82,1.13c.19.38.5.89.73,1.27l.57,1.27c.14.42.36.96.49,1.39-1.03-3.39-9.23-4.5-23.7-2.9Z"/>
    <path class="cls-6" d="M173.9,15.23c-28.39.09-56.84,6.98-84.5,20.54-18.3,6.43-34.84,13.54-46.01,20.07-1.95-6.27.26-12.27,5-15.05,1.04-.57,2.43-1.34,3.46-1.93,1.22-.66,2.87-1.53,4.1-2.14l3.98-1.95c1.34-.61,3.08-1.42,4.38-2.02l4.43-1.93c1.42-.57,3.28-1.37,4.71-1.95l4.76-1.88c1.49-.57,3.48-1.34,4.95-1.88l5.06-1.84c1.55-.5,3.6-1.25,5.14-1.77l5.25-1.72c1.58-.5,3.79-.92,5.28-1.67l5.3-1.62c1.6-.47,3.84-.76,5.33-1.53l5.33-1.44c1.56-.4,3.68-.99,5.28-1.37l5.25-1.25c1.55-.37,3.63-.85,5.21-1.2l5.07-1.03c1.51-.3,3.53-.68,5.06-.97l4.71-.78c5-.71,8.31-1.18,13.59-1.53l3.3-.14c3.81,0,4.48,0,7.52.28l2.26.33c.92.17,2.17.43,3.09.66l1.74.54c.59.23,1.39.52,1.95.78l1.44.71c.45.26,1.06.59,1.49.87l1.2.87c.35.31.85.7,1.2.99l.99,1.01c.3.35.69.8.96,1.13l.82,1.15c.21.38.5.87.71,1.27l.59,1.25c.14.42.38.97.52,1.39-.96-3.08-7.82-4.29-19.91-3.27Z"/>
    <path class="cls-42" d="M177.21,15c-39.34-1.06-71.94,11.59-92.35,22.42-16.47,5.98-31.23,12.44-41.46,18.44-1.93-6.27.24-12.27,5.02-15.05,1.01-.59,2.42-1.36,3.44-1.95,1.22-.64,2.87-1.49,4.08-2.14l4-1.93c1.32-.63,3.06-1.44,4.38-2.03l4.43-1.93c1.41-.59,3.27-1.37,4.67-1.95l4.8-1.88c1.49-.57,3.46-1.34,4.95-1.88l5.06-1.81c1.55-.54,3.6-1.27,5.14-1.79l5.23-1.72c1.58-.52,3.79-.94,5.27-1.67l5.33-1.62c1.6-.45,3.84-.8,5.33-1.53l5.32-1.44c1.58-.42,3.68-.99,5.3-1.37l5.25-1.27c1.56-.35,3.63-.83,5.2-1.18l5.07-1.04c1.51-.29,3.54-.68,5.06-.96l4.73-.8c5-.7,8.31-1.18,13.57-1.53l3.32-.12c3.79,0,4.45,0,7.51.28l2.24.31c.96.17,2.17.43,3.11.68l1.74.52c.61.23,1.39.52,1.98.78l1.42.71c.45.26,1.04.61,1.49.89l1.2.85c.36.31.85.69,1.18,1.03l1.01.97c.3.35.69.8.97,1.15l.8,1.13c.21.38.52.89.71,1.25l.59,1.29c.16.4.36.96.49,1.39-.87-2.78-6.53-4.05-16.58-3.51Z"/>
    <path class="cls-46" d="M180.11,14.89c-43.79-3.44-84.34,15.76-99.76,24.19-14.67,5.49-27.68,11.33-36.96,16.77-1.93-6.27.26-12.28,5-15.05,1.03-.59,2.43-1.37,3.46-1.96,1.22-.63,2.85-1.49,4.08-2.12l3.98-1.93c1.34-.63,3.08-1.44,4.41-2.03l4.43-1.91c1.39-.59,3.25-1.39,4.66-1.95l4.8-1.89c1.49-.56,3.46-1.34,4.97-1.88l5.02-1.82c1.56-.52,3.61-1.25,5.16-1.77l5.23-1.72c1.58-.5,3.79-.94,5.27-1.67l5.32-1.62c1.62-.47,3.86-.8,5.33-1.53l5.33-1.46c1.58-.4,3.7-.97,5.32-1.36l5.25-1.27c1.55-.36,3.61-.83,5.18-1.18l5.07-1.04c1.51-.3,3.54-.66,5.06-.96l4.74-.8c4.99-.71,8.29-1.16,13.57-1.51l3.3-.14c3.77,0,4.45,0,7.51.28l2.24.29c.96.21,2.19.43,3.11.7l1.74.52c.59.24,1.39.52,1.98.78l1.42.71c.43.26,1.04.61,1.49.89l1.2.85c.36.3.83.68,1.18,1.01l1.01,1.01c.3.35.68.76.97,1.13l.78,1.15c.23.37.54.87.73,1.27l.59,1.25c.16.42.37.97.49,1.39-.78-2.52-5.44-3.77-13.67-3.61Z"/>
    <path class="cls-8" d="M182.73,14.89c-49.19-7.12-106.2,25.53-106.79,25.86-12.82,5.02-24.19,10.2-32.56,15.1-1.93-6.27.28-12.28,5.04-15.05,1.03-.59,2.4-1.37,3.44-1.96,1.22-.63,2.87-1.49,4.08-2.12l4.01-1.93c1.32-.63,3.04-1.44,4.38-2.03l4.41-1.91c1.41-.59,3.28-1.39,4.69-1.95l4.78-1.89c1.49-.56,3.49-1.34,4.97-1.88l5.06-1.82c1.53-.52,3.58-1.25,5.13-1.77l5.25-1.72c1.58-.5,3.79-.94,5.28-1.67l5.32-1.62c1.58-.47,3.84-.8,5.32-1.53l5.33-1.46c1.6-.4,3.7-.97,5.3-1.36l5.23-1.27c1.56-.36,3.65-.83,5.21-1.18l5.07-1.04c1.51-.3,3.53-.66,5.06-.96l4.73-.8c4.99-.71,8.29-1.16,13.57-1.51l3.3-.14c3.81,0,4.48,0,7.54.28l2.24.29c.94.21,2.17.43,3.09.7l1.72.52c.61.24,1.41.52,1.96.78l1.46.71c.43.26,1.04.61,1.48.89l1.22.85c.33.3.83.68,1.18,1.01l1.01,1.01c.26.35.7.76.94,1.13l.82,1.15c.21.37.5.87.73,1.27l.57,1.25c.14.42.37.97.52,1.39-.69-2.22-4.48-3.48-11.09-3.61Z"/>
    <path class="cls-51" d="M185.05,14.99c-49.59-9.66-112.77,27.09-113.38,27.45-11.09,4.47-20.89,9.07-28.29,13.41-1.95-6.29.28-12.28,5.02-15.07,1.03-.59,2.4-1.34,3.46-1.93,1.22-.66,2.85-1.51,4.08-2.16l4-1.93c1.3-.61,3.06-1.44,4.38-2.03l4.43-1.93c1.41-.59,3.28-1.36,4.67-1.93l4.78-1.89c1.51-.56,3.48-1.34,4.97-1.88l5.06-1.81c1.55-.54,3.58-1.27,5.14-1.79l5.21-1.72c1.58-.52,3.82-.92,5.3-1.67l5.32-1.62c1.62-.45,3.84-.78,5.32-1.53l5.32-1.44c1.62-.42,3.72-.99,5.32-1.37l5.23-1.27c1.56-.35,3.65-.83,5.21-1.18l5.07-1.04c1.53-.28,3.53-.68,5.06-.96l4.73-.78c4.99-.71,8.27-1.18,13.57-1.53l3.32-.14c3.77,0,4.47,0,7.52.28l2.24.31c.94.19,2.17.43,3.09.68l1.72.52c.61.23,1.41.52,1.98.8l1.44.69c.43.28,1.06.61,1.49.89l1.2.87c.35.3.85.7,1.18,1.01l1.01.99c.28.35.7.78.96,1.15l.78,1.13c.23.36.56.87.75,1.25l.59,1.27c.14.42.36.96.49,1.39-.59-1.96-3.56-3.15-8.74-3.51Z"/>
    <path class="cls-7" d="M187.16,15.2c-43.88-12.11-108.72,21.79-119.67,28.97-9.37,3.93-17.62,7.91-24.08,11.69-1.95-6.27.24-12.29,5-15.07,1.03-.59,2.42-1.36,3.46-1.95,1.22-.64,2.85-1.49,4.08-2.12l4-1.95c1.32-.61,3.04-1.44,4.4-2.02l4.43-1.95c1.39-.57,3.25-1.35,4.66-1.91l4.78-1.91c1.49-.56,3.48-1.32,4.99-1.86l5.02-1.82c1.56-.54,3.61-1.27,5.16-1.79l5.21-1.72c1.6-.5,3.81-.94,5.28-1.67l5.32-1.6c1.6-.47,3.84-.8,5.32-1.55l5.35-1.44c1.58-.4,3.7-.99,5.32-1.36l5.21-1.29c1.56-.35,3.65-.82,5.21-1.16l5.07-1.06c1.51-.28,3.54-.66,5.06-.96l4.74-.78c4.99-.71,8.27-1.18,13.55-1.51l3.32-.16c3.77,0,4.45,0,7.51.28l2.26.31c.94.19,2.17.43,3.09.68l1.74.54c.59.23,1.37.52,1.96.76l1.44.71c.43.28,1.04.63,1.46.89l1.23.85c.35.31.83.69,1.18,1.03l1.01.99c.28.35.68.78.96,1.15l.78,1.13c.24.36.56.87.73,1.25l.61,1.27c.14.42.37.97.49,1.39-.49-1.65-2.76-2.78-6.64-3.3Z"/>
    <path class="cls-16" d="M189,15.52c-34.08-13.57-104.4,15.52-125.63,30.41-7.68,3.34-14.49,6.69-20,9.92-1.93-6.29.28-12.27,5.02-15.07,1.04-.57,2.42-1.34,3.44-1.93,1.23-.66,2.87-1.49,4.1-2.14l4-1.95c1.3-.61,3.06-1.42,4.38-2l4.43-1.95c1.41-.57,3.3-1.37,4.69-1.93l4.78-1.89c1.49-.57,3.47-1.34,4.95-1.88l5.06-1.81c1.53-.54,3.58-1.29,5.14-1.77l5.23-1.76c1.58-.5,3.79-.92,5.3-1.65l5.3-1.6c1.62-.47,3.86-.8,5.33-1.55l5.32-1.46c1.6-.4,3.7-.99,5.3-1.34l5.25-1.29c1.56-.35,3.65-.83,5.21-1.18l5.07-1.04c1.51-.3,3.53-.68,5.06-.96l4.71-.78c4.99-.73,8.31-1.2,13.59-1.55l3.3-.14c3.79,0,4.48,0,7.54.28l2.22.31c.96.19,2.17.45,3.11.7l1.72.54c.61.21,1.41.5,1.96.76l1.46.71c.42.26,1.04.61,1.48.87l1.2.87c.37.29.85.69,1.2,1.01l.99.99c.3.35.7.8.96,1.15l.82,1.13c.21.38.5.87.73,1.27l.57,1.27c.14.4.38.96.5,1.39-.43-1.39-2.05-2.4-4.8-2.99Z"/>
    <path class="cls-2" d="M190.62,15.96C158.8-.63,81.95,30.61,59.34,47.71c-6.01,2.76-11.43,5.49-15.95,8.15-1.93-6.27.26-12.29,5-15.07,1.04-.57,2.43-1.34,3.48-1.93,1.22-.66,2.85-1.51,4.08-2.15l3.98-1.93c1.34-.61,3.06-1.44,4.4-2.02l4.43-1.95c1.39-.57,3.27-1.36,4.67-1.93l4.78-1.89c1.49-.54,3.46-1.32,4.97-1.86l5.02-1.81c1.56-.56,3.61-1.29,5.16-1.81l5.23-1.72c1.6-.52,3.81-.92,5.28-1.67l5.3-1.6c1.62-.45,3.86-.78,5.33-1.55l5.35-1.44c1.58-.4,3.7-.99,5.3-1.37l5.23-1.27c1.56-.35,3.65-.83,5.21-1.15l5.07-1.08c1.51-.28,3.54-.68,5.06-.96l4.73-.8c5-.7,8.29-1.16,13.57-1.49l3.3-.16c3.79,0,4.47,0,7.52.28l2.26.31c.92.19,2.17.43,3.08.68l1.75.54c.59.23,1.37.52,1.96.78l1.42.7c.45.28,1.06.61,1.49.89l1.22.87c.35.3.82.7,1.18,1.01l1.01,1.01c.28.33.68.76.96,1.13l.78,1.13c.24.36.54.87.73,1.25l.61,1.27c.14.42.36.97.49,1.39-.33-1.09-1.39-1.93-3.18-2.54Z"/>
    <path class="cls-43" d="M192.01,16.55C166.99-2.14,82.42,27.43,55.22,49.64c-4.38,2.09-8.38,4.19-11.85,6.2-1.93-6.27.28-12.25,5.02-15.05,1.04-.59,2.42-1.36,3.48-1.93,1.22-.64,2.85-1.53,4.08-2.14l3.98-1.96c1.32-.59,3.06-1.43,4.38-2l4.43-1.93c1.41-.57,3.28-1.37,4.69-1.95l4.78-1.89c1.49-.56,3.47-1.34,4.95-1.86l5.06-1.82c1.53-.56,3.58-1.27,5.14-1.79l5.25-1.72c1.58-.5,3.79-.92,5.28-1.69l5.3-1.6c1.6-.45,3.84-.76,5.33-1.53l5.33-1.43c1.56-.42,3.68-1.01,5.28-1.39l5.25-1.25c1.58-.36,3.63-.85,5.21-1.18l5.07-1.08c1.51-.26,3.53-.64,5.06-.94l4.71-.78c5-.69,8.31-1.18,13.59-1.53l3.3-.14c3.79,0,4.48,0,7.52.28l2.26.31c.9.19,2.17.45,3.09.68l1.74.54c.59.23,1.39.5,1.96.76l1.42.71c.47.28,1.06.61,1.49.89l1.2.87c.35.3.85.7,1.2.99l.99,1.01c.3.35.71.78.96,1.13l.82,1.15c.21.36.5.87.71,1.25l.59,1.27c.14.42.38.96.52,1.37-.26-.75-.85-1.41-1.81-1.93Z"/>
    <path class="cls-39" d="M193.1,17.35c-18.21-22-111.9,7.8-142.05,34.35-2.76,1.41-5.33,2.78-7.65,4.15-1.96-6.29.24-12.28,5.02-15.06,1.03-.57,2.4-1.36,3.44-1.93,1.22-.66,2.85-1.53,4.08-2.14l4-1.96c1.3-.59,3.08-1.42,4.38-2l4.43-1.95c1.39-.57,3.27-1.36,4.69-1.93l4.78-1.88c1.49-.57,3.46-1.34,4.95-1.88l5.06-1.84c1.53-.5,3.6-1.25,5.16-1.77l5.21-1.72c1.58-.5,3.79-.92,5.28-1.67l5.32-1.6c1.6-.45,3.84-.78,5.33-1.55l5.32-1.44c1.58-.42,3.7-.99,5.3-1.37l5.25-1.27c1.55-.35,3.63-.83,5.2-1.16l5.07-1.06c1.51-.28,3.54-.68,5.07-.96l4.73-.78c4.99-.71,8.27-1.18,13.55-1.53l3.32-.14c3.77,0,4.45,0,7.51.28l2.24.31c.96.19,2.21.45,3.11.68l1.74.54c.61.23,1.39.52,1.98.78l1.42.71c.45.26,1.04.61,1.49.87l1.2.85c.35.31.85.71,1.18,1.03l1.01.99c.3.35.7.78.96,1.13l.82,1.15c.19.38.52.87.71,1.27l.59,1.25c.16.42.35.97.49,1.37-.14-.4-.35-.78-.69-1.13Z"/>
    <path class="cls-10" d="M193.77,18.44c-8.98-25.07-117.06,5.42-147.12,35.57-1.13.63-2.22,1.23-3.27,1.84-1.93-6.27.28-12.27,5.02-15.05,1.03-.57,2.42-1.36,3.46-1.95,1.22-.63,2.85-1.51,4.07-2.14l4.01-1.95c1.32-.61,3.06-1.41,4.38-2l4.45-1.93c1.39-.59,3.25-1.39,4.66-1.95l4.8-1.89c1.49-.57,3.46-1.32,4.95-1.88l5.04-1.81c1.56-.54,3.61-1.27,5.16-1.79l5.21-1.72c1.6-.5,3.82-.92,5.3-1.69l5.32-1.6c1.62-.47,3.84-.78,5.3-1.55l5.33-1.44c1.62-.4,3.72-.97,5.33-1.35l5.25-1.27c1.53-.36,3.61-.83,5.16-1.18l5.09-1.04c1.53-.29,3.53-.68,5.06-.94l4.74-.8c4.97-.71,8.27-1.18,13.57-1.55l3.3-.1c3.77,0,4.45,0,7.52.24l2.24.33c.94.17,2.17.43,3.09.68l1.74.54c.59.23,1.39.5,1.98.78l1.42.7c.43.26,1.04.61,1.49.89l1.2.87c.35.3.83.68,1.18.99l1.01.99c.3.35.68.8.97,1.15l.76,1.15c.23.36.56.85.73,1.25l.61,1.25c.14.42.36.97.49,1.41,0-.03-.02-.05-.02-.07Z"/>
    <path class="cls-40" d="M192.52,15.49c-16.54-22-123.82,10.84-149.33,39.72-1.58-6.05.63-11.73,5.21-14.4,1.04-.59,2.41-1.37,3.46-1.96,1.23-.63,2.83-1.49,4.1-2.14l3.98-1.93c1.3-.61,3.06-1.44,4.4-2.02l4.41-1.93c1.41-.59,3.27-1.37,4.67-1.95l4.8-1.89c1.48-.57,3.46-1.32,4.95-1.86l5.04-1.82c1.55-.54,3.61-1.29,5.16-1.77l5.23-1.74c1.6-.5,3.79-.92,5.27-1.67l5.32-1.6c1.62-.47,3.86-.8,5.35-1.55l5.32-1.44c1.58-.42,3.7-.99,5.32-1.37l5.23-1.27c1.56-.35,3.63-.83,5.21-1.18l5.09-1.04c1.49-.3,3.51-.68,5.04-.94l4.73-.8c4.99-.71,8.29-1.2,13.55-1.53l3.32-.12c3.81,0,4.47,0,7.51.26l2.26.31c.94.19,2.17.43,3.09.68l1.76.54c.57.23,1.37.5,1.96.78l1.42.69c.45.28,1.04.61,1.49.9l1.2.83c.36.31.85.7,1.2,1.03l.99.99c.3.35.68.78.96,1.13l.8,1.16.69,1.15-.16-.26Z"/>
  </g>
  <path class="cls-46" d="M52.29,39.39c-19.86,11.61-11.12,16.63,19.48,11.19,30.63-5.44,71.54-19.27,91.38-30.88,19.83-11.62,11.12-16.63-19.5-11.19-30.62,5.46-71.54,19.27-91.36,30.88Z"/>
  <g class="cls-24">
    <path class="cls-3" d="M145.73,7.73c-27.16,4.92-69.12,17.31-96.99,32.86.82-.47,2.1-.96,3.54-1.2,19.84-11.61,60.75-25.46,91.36-30.88,30.62-5.44,39.34-.43,19.51,11.19-19.86,11.61-60.75,25.42-91.38,30.88-30.62,5.44-39.36.42-19.5-11.19-1.44.24-2.73.73-3.89,1.41-7.63,4.66-21.84,13.31-18.09,27.96,1.36,4.36,14.35,5.02,37.24.94,37.95-6.72,88.62-23.84,113.19-38.24,9.77-5.7,13.94-10.13,13.07-12.95-4.64-13-18.58-16.11-48.06-10.77Z"/>
    <path class="cls-3" d="M48.4,40.79c-4.73,2.85-6.6,4.17-9.75,6.72l-1.69,1.55c-.66.66-1.53,1.56-2.14,2.24l-1.16,1.44c-.33.52-.83,1.18-1.16,1.74l-.78,1.37c-.23.49-.52,1.09-.73,1.58l-.5,1.37c-.14.45-.31,1.06-.42,1.51l-.26,1.39c-.05.43-.14,1.03-.17,1.48l-.02,1.37c.03.45.05,1.03.1,1.44l.23,1.39c.12.43.24.99.38,1.41,1.32,4.31,14.33,4.97,37.24.9,6.34-1.15,13.05-2.55,19.96-4.22-.63.14-1.42.31-2.02.43-39.79,7.11-42.66-2.19-41.53-4.21.71-1.25,96.98-28.34,98.59-22.38,1.2,4.34-13.43,14-39.11,22.02,29.66-8.25,59.93-19.76,77.27-29.9,9.75-5.7,13.94-10.13,13.05-12.96-.14-.38-.31-.92-.45-1.32-.21-.4-.43-.94-.63-1.32l-.7-1.2c-.24-.36-.57-.83-.82-1.2l-.92-1.06c-.33-.33-.73-.76-1.06-1.06l-1.09-.96c-.38-.28-.89-.66-1.29-.92l-1.34-.8c-.47-.24-1.11-.57-1.58-.78l-1.63-.68c-.63-.17-1.44-.45-2.09-.64l-2.05-.47c-.99-.19-2.29-.38-3.28-.52l-2.73-.21c-3.6-.1-4.24-.12-8.1.07l-3.75.28c-4.38.49-7.58.83-14.54,2.03l-4.99.94c-1.53.31-3.61.73-5.16,1.06l-5.16,1.18c-1.58.38-3.7.87-5.26,1.27l-5.32,1.37c-1.58.45-3.72,1.06-5.33,1.44l-5.32,1.55c-1.6.47-3.82.85-5.32,1.6l-5.28,1.67c-1.56.52-3.74,1.01-5.23,1.72l-5.14,1.79c-1.51.54-3.56,1.22-5.06,1.82l-4.92,1.86c-1.46.57-3.39,1.3-4.83,1.89l-4.59,1.91c-1.36.57-3.16,1.36-4.52,1.96l-4.22,1.91c-1.23.63-2.9,1.42-4.15,2.05l-3.72,1.93c-1.15.64-2.71,1.46-3.82,2.14,1.15-.68,2.47-1.15,3.89-1.42,19.83-11.61,60.75-25.4,91.35-30.86,30.62-5.44,39.36-.43,19.51,11.19-19.84,11.61-60.75,25.42-91.36,30.88-30.63,5.42-39.36.43-19.5-11.21-1.42.28-2.75.75-3.89,1.42Z"/>
    <path class="cls-12" d="M48.4,40.79c-4.73,2.85-6.6,4.17-9.75,6.72l-1.69,1.55c-.66.66-1.53,1.56-2.14,2.24l-1.16,1.44c-.33.52-.83,1.18-1.16,1.74l-.78,1.37c-.23.49-.52,1.09-.73,1.58l-.5,1.37c-.14.45-.31,1.06-.42,1.51l-.26,1.39c-.05.43-.14,1.03-.17,1.48l-.02,1.37c.03.45.05,1.03.1,1.44l.23,1.39c.12.43.24.99.38,1.41,1.32,4.31,14.33,4.97,37.24.9,3.35-.59,6.83-1.29,10.36-2.05-1.7.24-4,.56-5.72.8-25.68,3.21-33.54-3.75-30.13-7.66,1.06-1.2,103.75-29.94,103.6-22.68-.1,4.19-10.98,12.58-34.68,21.08,27.14-8.03,53.87-18.45,69.75-27.75,9.75-5.7,13.94-10.13,13.05-12.96-.14-.38-.31-.92-.45-1.32-.21-.4-.43-.94-.63-1.32l-.7-1.2c-.24-.36-.57-.83-.82-1.2l-.92-1.06c-.33-.33-.73-.76-1.06-1.06l-1.09-.96c-.38-.28-.89-.66-1.29-.92l-1.34-.8c-.47-.24-1.11-.57-1.58-.78l-1.63-.68c-.63-.17-1.44-.45-2.09-.64l-2.05-.47c-.99-.19-2.29-.38-3.28-.52l-2.73-.21c-3.6-.1-4.24-.12-8.1.07l-3.75.28c-4.38.49-7.58.83-14.54,2.03l-4.99.94c-1.53.31-3.61.73-5.16,1.06l-5.16,1.18c-1.58.38-3.7.87-5.26,1.27l-5.32,1.37c-1.58.45-3.72,1.06-5.33,1.44l-5.32,1.55c-1.6.47-3.82.85-5.32,1.6l-5.28,1.67c-1.56.52-3.74,1.01-5.23,1.72l-5.14,1.79c-1.51.54-3.56,1.22-5.06,1.82l-4.92,1.86c-1.46.57-3.39,1.3-4.83,1.89l-4.59,1.91c-1.36.57-3.16,1.36-4.52,1.96l-4.22,1.91c-1.23.63-2.9,1.42-4.15,2.05l-3.72,1.93c-1.15.64-2.71,1.46-3.82,2.14,1.15-.68,2.47-1.15,3.89-1.42,19.83-11.61,60.75-25.4,91.35-30.86,30.62-5.44,39.36-.43,19.51,11.19-19.84,11.61-60.75,25.42-91.36,30.88-30.63,5.42-39.36.43-19.5-11.21-1.42.28-2.75.75-3.89,1.42Z"/>
    <path class="cls-50" d="M48.4,40.79c-4.73,2.85-6.6,4.17-9.75,6.72l-1.69,1.55c-.66.66-1.53,1.56-2.14,2.24l-1.16,1.44c-.33.52-.83,1.18-1.16,1.74l-.78,1.37c-.23.49-.52,1.09-.73,1.58l-.5,1.37c-.14.45-.31,1.06-.42,1.51l-.26,1.39c-.05.43-.14,1.03-.17,1.48l-.02,1.37c.03.45.05,1.03.1,1.44l.23,1.39c.12.43.24.99.38,1.41,1.32,4.31,14.33,4.97,37.24.9.9-.17,1.86-.33,2.83-.54-1.62.16-3.75.35-5.37.5-21.3,1.56-27.85-5.11-25.26-8.98,1.22-1.82,4.45-2.66,5.65-2.97,15.17-3.91,30.79-5.61,45.94-9.43,15.5-3.93,30.67-9.11,46.19-12.88.33-.07.75-.19,1.04-.26,3.54-.8,10.08-2.29,10.29.75.02.35.23,8.65-32.46,21.67,25.25-7.78,49.52-17.45,64.33-26.12,9.75-5.7,13.94-10.13,13.05-12.96-.14-.38-.31-.92-.45-1.32-.21-.4-.43-.94-.63-1.32l-.7-1.2c-.24-.36-.57-.83-.82-1.2l-.92-1.06c-.33-.33-.73-.76-1.06-1.06l-1.09-.96c-.38-.28-.89-.66-1.29-.92l-1.34-.8c-.47-.24-1.11-.57-1.58-.78l-1.63-.68c-.63-.17-1.44-.45-2.09-.64l-2.05-.47c-.99-.19-2.29-.38-3.28-.52l-2.73-.21c-3.6-.1-4.24-.12-8.1.07l-3.75.28c-4.38.49-7.58.83-14.54,2.03l-4.99.94c-1.53.31-3.61.73-5.16,1.06l-5.16,1.18c-1.58.38-3.7.87-5.26,1.27l-5.32,1.37c-1.58.45-3.72,1.06-5.33,1.44l-5.32,1.55c-1.6.47-3.82.85-5.32,1.6l-5.28,1.67c-1.56.52-3.74,1.01-5.23,1.72l-5.14,1.79c-1.51.54-3.56,1.22-5.06,1.82l-4.92,1.86c-1.46.57-3.39,1.3-4.83,1.89l-4.59,1.91c-1.36.57-3.16,1.36-4.52,1.96l-4.22,1.91c-1.23.63-2.9,1.42-4.15,2.05l-3.72,1.93c-1.15.64-2.71,1.46-3.82,2.14,1.15-.68,2.47-1.15,3.89-1.42,19.83-11.61,60.75-25.4,91.35-30.86,30.62-5.44,39.36-.43,19.51,11.19-19.84,11.61-60.75,25.42-91.36,30.88-30.63,5.42-39.36.43-19.5-11.21-1.42.28-2.75.75-3.89,1.42Z"/>
    <path class="cls-17" d="M48.4,40.79c-4.73,2.85-6.6,4.17-9.75,6.72l-1.69,1.55c-.66.66-1.53,1.56-2.14,2.24l-1.16,1.44c-.33.52-.83,1.18-1.16,1.74l-.78,1.37c-.23.49-.52,1.09-.73,1.58l-.5,1.37c-.14.45-.31,1.06-.42,1.51l-.26,1.39c-.05.43-.14,1.03-.17,1.48l-.02,1.37c.03.45.05,1.03.1,1.44l.23,1.39c.12.43.24.99.38,1.41,1.23,4.08,12.91,4.88,33.48,1.53-1.42.07-3.35.12-4.81.16-20.42.28-23.7-7.51-20.57-10.86,1.15-1.27,2.29-2.12,11.03-3.48,13.19-2.03,22.73-3.49,40.85-7.96,18.09-4.47,35.53-11.16,53.71-15.33,4.97-1.11,7.77-.89,8.24.7.89,3.02-7.33,12.74-31.19,22.54,23.53-7.51,45.75-16.51,59.67-24.66,9.75-5.7,13.94-10.13,13.05-12.96-.14-.38-.31-.92-.45-1.32-.21-.4-.43-.94-.63-1.32l-.7-1.2c-.24-.36-.57-.83-.82-1.2l-.92-1.06c-.33-.33-.73-.76-1.06-1.06l-1.09-.96c-.38-.28-.89-.66-1.29-.92l-1.34-.8c-.47-.24-1.11-.57-1.58-.78l-1.63-.68c-.63-.17-1.44-.45-2.09-.64l-2.05-.47c-.99-.19-2.29-.38-3.28-.52l-2.73-.21c-3.6-.1-4.24-.12-8.1.07l-3.75.28c-4.38.49-7.58.83-14.54,2.03l-4.99.94c-1.53.31-3.61.73-5.16,1.06l-5.16,1.18c-1.58.38-3.7.87-5.26,1.27l-5.32,1.37c-1.58.45-3.72,1.06-5.33,1.44l-5.32,1.55c-1.6.47-3.82.85-5.32,1.6l-5.28,1.67c-1.56.52-3.74,1.01-5.23,1.72l-5.14,1.79c-1.51.54-3.56,1.22-5.06,1.82l-4.92,1.86c-1.46.57-3.39,1.3-4.83,1.89l-4.59,1.91c-1.36.57-3.16,1.36-4.52,1.96l-4.22,1.91c-1.23.63-2.9,1.42-4.15,2.05l-3.72,1.93c-1.15.64-2.71,1.46-3.82,2.14,1.15-.68,2.47-1.15,3.89-1.42,19.83-11.61,60.75-25.4,91.35-30.86,30.62-5.44,39.36-.43,19.51,11.19-19.84,11.61-60.75,25.42-91.36,30.88-30.63,5.42-39.36.43-19.5-11.21-1.42.28-2.75.75-3.89,1.42Z"/>
    <path class="cls-34" d="M48.4,40.79c-4.73,2.85-6.6,4.17-9.75,6.72l-1.69,1.55c-.66.66-1.53,1.56-2.14,2.24l-1.16,1.44c-.33.52-.83,1.18-1.16,1.74l-.78,1.37c-.23.49-.52,1.09-.73,1.58l-.5,1.37c-.14.45-.31,1.06-.42,1.51l-.26,1.39c-.05.43-.14,1.03-.17,1.48l-.02,1.37c.03.45.05,1.03.1,1.44l.23,1.39c.12.43.24.99.38,1.41,1.13,3.72,10.89,4.71,28.1,2.35h-.57c-29.05-.99-20.66-12.56-20.52-12.67,1.22-1.06,2.99-1.49,4.54-1.89,16.37-4.07,33.34-4.86,49.68-9.02,19.55-5,38.33-12.62,58.05-17.03,1.41-.3,6.03-1.11,6.2,1.53.05.85-.35,8.91-30.18,22.55,21.84-7.19,42.12-15.57,55.12-23.18,9.75-5.7,13.94-10.13,13.05-12.96-.14-.38-.31-.92-.45-1.32-.21-.4-.43-.94-.63-1.32l-.7-1.2c-.24-.36-.57-.83-.82-1.2l-.92-1.06c-.33-.33-.73-.76-1.06-1.06l-1.09-.96c-.38-.28-.89-.66-1.29-.92l-1.34-.8c-.47-.24-1.11-.57-1.58-.78l-1.63-.68c-.63-.17-1.44-.45-2.09-.64l-2.05-.47c-.99-.19-2.29-.38-3.28-.52l-2.73-.21c-3.6-.1-4.24-.12-8.1.07l-3.75.28c-4.38.49-7.58.83-14.54,2.03l-4.99.94c-1.53.31-3.61.73-5.16,1.06l-5.16,1.18c-1.58.38-3.7.87-5.26,1.27l-5.32,1.37c-1.58.45-3.72,1.06-5.33,1.44l-5.32,1.55c-1.6.47-3.82.85-5.32,1.6l-5.28,1.67c-1.56.52-3.74,1.01-5.23,1.72l-5.14,1.79c-1.51.54-3.56,1.22-5.06,1.82l-4.92,1.86c-1.46.57-3.39,1.3-4.83,1.89l-4.59,1.91c-1.36.57-3.16,1.36-4.52,1.96l-4.22,1.91c-1.23.63-2.9,1.42-4.15,2.05l-3.72,1.93c-1.15.64-2.71,1.46-3.82,2.14,1.15-.68,2.47-1.15,3.89-1.42,19.83-11.61,60.75-25.4,91.35-30.86,30.62-5.44,39.36-.43,19.51,11.19-19.84,11.61-60.75,25.42-91.36,30.88-30.63,5.42-39.36.43-19.5-11.21-1.42.28-2.75.75-3.89,1.42Z"/>
    <path class="cls-31" d="M48.4,40.79c-4.73,2.85-6.6,4.17-9.75,6.72l-1.69,1.55c-.66.66-1.53,1.56-2.14,2.24l-1.16,1.44c-.33.52-.83,1.18-1.16,1.74l-.78,1.37c-.23.49-.52,1.09-.73,1.58l-.5,1.37c-.14.45-.31,1.06-.42,1.51l-.26,1.39c-.05.43-.14,1.03-.17,1.48l-.02,1.37c.03.45.05,1.03.1,1.44l.23,1.39c.12.43.24.99.38,1.41,1.04,3.39,9.23,4.5,23.7,2.9-.57-.03-1.36-.09-1.91-.12-24.57-2.73-15.85-14.11-15.69-14.21,1.96-1.48,4.67-1.72,8.83-2.05,8.22-.68,20.66-1.69,45.28-7.78,20.92-5.18,40.71-14.11,61.75-18.82,4.57-.99,6.67-.61,6.86,1.25.38,3.84-8.32,13.55-29.02,23.15,20.09-6.83,38.51-14.58,50.6-21.67,9.75-5.7,13.94-10.13,13.05-12.96-.14-.38-.31-.92-.45-1.32-.21-.4-.43-.94-.63-1.32l-.7-1.2c-.24-.36-.57-.83-.82-1.2l-.92-1.06c-.33-.33-.73-.76-1.06-1.06l-1.09-.96c-.38-.28-.89-.66-1.29-.92l-1.34-.8c-.47-.24-1.11-.57-1.58-.78l-1.63-.68c-.63-.17-1.44-.45-2.09-.64l-2.05-.47c-.99-.19-2.29-.38-3.28-.52l-2.73-.21c-3.6-.1-4.24-.12-8.1.07l-3.75.28c-4.38.49-7.58.83-14.54,2.03l-4.99.94c-1.53.31-3.61.73-5.16,1.06l-5.16,1.18c-1.58.38-3.7.87-5.26,1.27l-5.32,1.37c-1.58.45-3.72,1.06-5.33,1.44l-5.32,1.55c-1.6.47-3.82.85-5.32,1.6l-5.28,1.67c-1.56.52-3.74,1.01-5.23,1.72l-5.14,1.79c-1.51.54-3.56,1.22-5.06,1.82l-4.92,1.86c-1.46.57-3.39,1.3-4.83,1.89l-4.59,1.91c-1.36.57-3.16,1.36-4.52,1.96l-4.22,1.91c-1.23.63-2.9,1.42-4.15,2.05l-3.72,1.93c-1.15.64-2.71,1.46-3.82,2.14,1.15-.68,2.47-1.15,3.89-1.42,19.83-11.61,60.75-25.4,91.35-30.86,30.62-5.44,39.36-.43,19.51,11.19-19.84,11.61-60.75,25.42-91.36,30.88-30.63,5.42-39.36.43-19.5-11.21-1.42.28-2.75.75-3.89,1.42Z"/>
    <path class="cls-6" d="M48.4,40.79c-4.73,2.85-6.6,4.17-9.75,6.72l-1.69,1.55c-.66.66-1.53,1.56-2.14,2.24l-1.16,1.44c-.33.52-.83,1.18-1.16,1.74l-.78,1.37c-.23.49-.52,1.09-.73,1.58l-.5,1.37c-.14.45-.31,1.06-.42,1.51l-.26,1.39c-.05.43-.14,1.03-.17,1.48l-.02,1.37c.03.45.05,1.03.1,1.44l.23,1.39c.12.43.24.99.38,1.41.94,3.08,7.77,4.27,19.88,3.27-.97-.12-2.26-.31-3.25-.43-17.39-3.32-14.49-13.43-11-15.66,1.6-1.03,2.99-1.16,8.27-1.29,12.18-.31,27.37-2.74,46.46-7.45,21.65-5.35,41.98-14.89,63.63-20.19,1.06-.26,2.48-.63,3.54-.85,4-.83,4.99.9,4.59,2.82-.42,2.19-3.72,10.25-27.73,22.52,18.3-6.45,34.84-13.55,46.01-20.09,9.75-5.7,13.94-10.13,13.05-12.96-.14-.38-.31-.92-.45-1.32-.21-.4-.43-.94-.63-1.32l-.7-1.2c-.24-.36-.57-.83-.82-1.2l-.92-1.06c-.33-.33-.73-.76-1.06-1.06l-1.09-.96c-.38-.28-.89-.66-1.29-.92l-1.34-.8c-.47-.24-1.11-.57-1.58-.78l-1.63-.68c-.63-.17-1.44-.45-2.09-.64l-2.05-.47c-.99-.19-2.29-.38-3.28-.52l-2.73-.21c-3.6-.1-4.24-.12-8.1.07l-3.75.28c-4.38.49-7.58.83-14.54,2.03l-4.99.94c-1.53.31-3.61.73-5.16,1.06l-5.16,1.18c-1.58.38-3.7.87-5.26,1.27l-5.32,1.37c-1.58.45-3.72,1.06-5.33,1.44l-5.32,1.55c-1.6.47-3.82.85-5.32,1.6l-5.28,1.67c-1.56.52-3.74,1.01-5.23,1.72l-5.14,1.79c-1.51.54-3.56,1.22-5.06,1.82l-4.92,1.86c-1.46.57-3.39,1.3-4.83,1.89l-4.59,1.91c-1.36.57-3.16,1.36-4.52,1.96l-4.22,1.91c-1.23.63-2.9,1.42-4.15,2.05l-3.72,1.93c-1.15.64-2.71,1.46-3.82,2.14,1.15-.68,2.47-1.15,3.89-1.42,19.83-11.61,60.75-25.4,91.35-30.86,30.62-5.44,39.36-.43,19.51,11.19-19.84,11.61-60.75,25.42-91.36,30.88-30.63,5.42-39.36.43-19.5-11.21-1.42.28-2.75.75-3.89,1.42Z"/>
    <path class="cls-42" d="M48.4,40.79c-4.73,2.85-6.6,4.17-9.75,6.72l-1.69,1.55c-.66.66-1.53,1.56-2.14,2.24l-1.16,1.44c-.33.52-.83,1.18-1.16,1.74l-.78,1.37c-.23.49-.52,1.09-.73,1.58l-.5,1.37c-.14.45-.31,1.06-.42,1.51l-.26,1.39c-.05.43-.14,1.03-.17,1.48l-.02,1.37c.03.45.05,1.03.1,1.44l.23,1.39c.12.43.24.99.38,1.41.85,2.78,6.53,4.03,16.56,3.49-.92-.17-2.14-.43-3.08-.63-15.17-3.74-12.39-14.68-8.08-17.17,1.32-.76,1.81-.82,6.57-.59,4.71.24,19.01.9,54.84-8.57,21.75-5.77,41.74-16.75,63.86-21.36,5.18-1.06,5.11,1.74,4.6,3.53-1.18,4.24-6.74,11.61-26.34,22.38,16.49-5.98,31.24-12.44,41.48-18.45,9.75-5.7,13.94-10.13,13.05-12.96-.14-.38-.31-.92-.45-1.32-.21-.4-.43-.94-.63-1.32l-.7-1.2c-.24-.36-.57-.83-.82-1.2l-.92-1.06c-.33-.33-.73-.76-1.06-1.06l-1.09-.96c-.38-.28-.89-.66-1.29-.92l-1.34-.8c-.47-.24-1.11-.57-1.58-.78l-1.63-.68c-.63-.17-1.44-.45-2.09-.64l-2.05-.47c-.99-.19-2.29-.38-3.28-.52l-2.73-.21c-3.6-.1-4.24-.12-8.1.07l-3.75.28c-4.38.49-7.58.83-14.54,2.03l-4.99.94c-1.53.31-3.61.73-5.16,1.06l-5.16,1.18c-1.58.38-3.7.87-5.26,1.27l-5.32,1.37c-1.58.45-3.72,1.06-5.33,1.44l-5.32,1.55c-1.6.47-3.82.85-5.32,1.6l-5.28,1.67c-1.56.52-3.74,1.01-5.23,1.72l-5.14,1.79c-1.51.54-3.56,1.22-5.06,1.82l-4.92,1.86c-1.46.57-3.39,1.3-4.83,1.89l-4.59,1.91c-1.36.57-3.16,1.36-4.52,1.96l-4.22,1.91c-1.23.63-2.9,1.42-4.15,2.05l-3.72,1.93c-1.15.64-2.71,1.46-3.82,2.14,1.15-.68,2.47-1.15,3.89-1.42,19.83-11.61,60.75-25.4,91.35-30.86,30.62-5.44,39.36-.43,19.51,11.19-19.84,11.61-60.75,25.42-91.36,30.88-30.63,5.42-39.36.43-19.5-11.21-1.42.28-2.75.75-3.89,1.42Z"/>
    <path class="cls-46" d="M48.4,40.79c-4.73,2.85-6.6,4.17-9.75,6.72l-1.69,1.55c-.66.66-1.53,1.56-2.14,2.24l-1.16,1.44c-.33.52-.83,1.18-1.16,1.74l-.78,1.37c-.23.49-.52,1.09-.73,1.58l-.5,1.37c-.14.45-.31,1.06-.42,1.51l-.26,1.39c-.05.43-.14,1.03-.17,1.48l-.02,1.37c.03.45.05,1.03.1,1.44l.23,1.39c.12.43.24.99.38,1.41.76,2.5,5.42,3.77,13.66,3.6-.38-.1-.96-.23-1.35-.33-18.18-5.65-9.07-17.98-6.72-19.32,1.29-.73,2.28-.52,3.3-.31,11.94,2.43,31.83-.14,59.11-7.63,23.41-6.41,41.63-13.4,52.77-18.11,7.7-3.27,11.64-4.87,13.52-5.27,5.27-1.04,4.59,2.82,4.03,4.54-.96,2.99-5.3,11.16-24.88,22.26,14.65-5.51,27.68-11.35,36.98-16.79,9.75-5.7,13.94-10.13,13.05-12.96-.14-.38-.31-.92-.45-1.32-.21-.4-.43-.94-.63-1.32l-.7-1.2c-.24-.36-.57-.83-.82-1.2l-.92-1.06c-.33-.33-.73-.76-1.06-1.06l-1.09-.96c-.38-.28-.89-.66-1.29-.92l-1.34-.8c-.47-.24-1.11-.57-1.58-.78l-1.63-.68c-.63-.17-1.44-.45-2.09-.64l-2.05-.47c-.99-.19-2.29-.38-3.28-.52l-2.73-.21c-3.6-.1-4.24-.12-8.1.07l-3.75.28c-4.38.49-7.58.83-14.54,2.03l-4.99.94c-1.53.31-3.61.73-5.16,1.06l-5.16,1.18c-1.58.38-3.7.87-5.26,1.27l-5.32,1.37c-1.58.45-3.72,1.06-5.33,1.44l-5.32,1.55c-1.6.47-3.82.85-5.32,1.6l-5.28,1.67c-1.56.52-3.74,1.01-5.23,1.72l-5.14,1.79c-1.51.54-3.56,1.22-5.06,1.82l-4.92,1.86c-1.46.57-3.39,1.3-4.83,1.89l-4.59,1.91c-1.36.57-3.16,1.36-4.52,1.96l-4.22,1.91c-1.23.63-2.9,1.42-4.15,2.05l-3.72,1.93c-1.15.64-2.71,1.46-3.82,2.14,1.15-.68,2.47-1.15,3.89-1.42,19.83-11.61,60.75-25.4,91.35-30.86,30.62-5.44,39.36-.43,19.51,11.19-19.84,11.61-60.75,25.42-91.36,30.88-30.63,5.42-39.36.43-19.5-11.21-1.42.28-2.75.75-3.89,1.42Z"/>
    <path class="cls-8" d="M48.4,40.79c-4.73,2.85-6.6,4.17-9.75,6.72l-1.69,1.55c-.66.66-1.53,1.56-2.14,2.24l-1.16,1.44c-.33.52-.83,1.18-1.16,1.74l-.78,1.37c-.23.49-.52,1.09-.73,1.58l-.5,1.37c-.14.45-.31,1.06-.42,1.51l-.26,1.39c-.05.43-.14,1.03-.17,1.48l-.02,1.37c.03.45.05,1.03.1,1.44l.23,1.39c.12.43.24.99.38,1.41.68,2.22,4.45,3.48,11.07,3.6-.75-.24-1.74-.61-2.48-.87-16.75-8.41-2.43-21.04-1.13-21.51.73-.26,1.01-.38,2.5.9,5.65,4.87,31.47.28,45.82-3.2,37.17-8.98,62.12-19.88,73.69-25.58,6.83-3.37,7.78-3.61,9.16-3.87,2.85-.52,4.38,2.42,2.07,7.45-4.33,9.35-17.31,17.39-22.88,20.83,12.88-5.02,24.26-10.22,32.6-15.12,9.75-5.7,13.94-10.13,13.05-12.96-.14-.38-.31-.92-.45-1.32-.21-.4-.43-.94-.63-1.32l-.7-1.2c-.24-.36-.57-.83-.82-1.2l-.92-1.06c-.33-.33-.73-.76-1.06-1.06l-1.09-.96c-.38-.28-.89-.66-1.29-.92l-1.34-.8c-.47-.24-1.11-.57-1.58-.78l-1.63-.68c-.63-.17-1.44-.45-2.09-.64l-2.05-.47c-.99-.19-2.29-.38-3.28-.52l-2.73-.21c-3.6-.1-4.24-.12-8.1.07l-3.75.28c-4.38.49-7.58.83-14.54,2.03l-4.99.94c-1.53.31-3.61.73-5.16,1.06l-5.16,1.18c-1.58.38-3.7.87-5.26,1.27l-5.32,1.37c-1.58.45-3.72,1.06-5.33,1.44l-5.32,1.55c-1.6.47-3.82.85-5.32,1.6l-5.28,1.67c-1.56.52-3.74,1.01-5.23,1.72l-5.14,1.79c-1.51.54-3.56,1.22-5.06,1.82l-4.92,1.86c-1.46.57-3.39,1.3-4.83,1.89l-4.59,1.91c-1.36.57-3.16,1.36-4.52,1.96l-4.22,1.91c-1.23.63-2.9,1.42-4.15,2.05l-3.72,1.93c-1.15.64-2.71,1.46-3.82,2.14,1.15-.68,2.47-1.15,3.89-1.42,19.83-11.61,60.75-25.4,91.35-30.86,30.62-5.44,39.36-.43,19.51,11.19-19.84,11.61-60.75,25.42-91.36,30.88-30.63,5.42-39.36.43-19.5-11.21-1.42.28-2.75.75-3.89,1.42Z"/>
    <path class="cls-51" d="M180.72,31.45c9.77-5.7,13.95-10.13,13.08-12.95-.16-.42-.36-.96-.49-1.36-.19-.4-.42-.92-.61-1.3l-.71-1.22c-.23-.35-.56-.83-.82-1.18l-.92-1.08c-.31-.33-.7-.75-1.04-1.04l-1.11-.96c-.38-.28-.89-.64-1.27-.94l-1.36-.78c-.47-.24-1.09-.59-1.58-.8l-1.62-.66c-.63-.19-1.46-.47-2.07-.64l-2.05-.49c-1.01-.17-2.31-.38-3.3-.5l-2.73-.21c-3.6-.1-4.24-.12-8.11.05l-3.74.3c-4.41.47-7.58.83-14.56,2.03l-4.97.94c-1.55.31-3.61.73-5.18,1.06l-5.16,1.16c-1.56.38-3.68.89-5.27,1.29l-5.3,1.37c-1.6.43-3.7,1.04-5.33,1.44l-5.32,1.55c-1.6.47-3.84.83-5.32,1.6l-5.3,1.65c-1.56.52-3.74,1.01-5.21,1.72l-5.14,1.81c-1.51.54-3.54,1.22-5.06,1.81l-4.92,1.86c-1.44.57-3.39,1.32-4.83,1.91l-4.6,1.89c-1.36.59-3.15,1.37-4.5,1.98l-4.22,1.93c-1.25.61-2.92,1.39-4.17,2.02l-3.72,1.93c-1.13.64-2.68,1.49-3.81,2.15,1.03-.61,2.15-1.04,3.39-1.32.99-.54,2.28-1.25,3.25-1.79,24.6-12.95,67.91-26.62,96.54-30.48,10.53-1.41,18.44-1.25,21.16.43,3.15,1.96,2.05,13.81,2.02,13.95-3.01,10.7-17.03,19.83-22.33,23.25,11.1-4.47,20.87-9.05,28.29-13.4Z"/>
    <path class="cls-7" d="M180.72,31.45c9.77-5.7,13.95-10.13,13.08-12.95-.16-.42-.36-.96-.49-1.36-.19-.4-.42-.92-.61-1.3l-.71-1.22c-.23-.35-.56-.83-.82-1.18l-.92-1.08c-.31-.33-.7-.75-1.04-1.04l-1.11-.96c-.38-.28-.89-.64-1.27-.94l-1.36-.78c-.47-.24-1.09-.59-1.58-.8l-1.62-.66c-.63-.19-1.46-.47-2.07-.64l-2.05-.49c-1.01-.17-2.31-.38-3.3-.5l-2.73-.21c-3.6-.1-4.24-.12-8.11.05l-3.74.3c-4.41.47-7.58.83-14.56,2.03l-4.97.94c-1.55.31-3.61.73-5.18,1.06l-5.16,1.16c-1.56.38-3.68.89-5.27,1.29l-5.3,1.37c-1.6.43-3.7,1.04-5.33,1.44l-5.32,1.55c-1.6.47-3.84.83-5.32,1.6l-5.3,1.65c-1.56.52-3.74,1.01-5.21,1.72l-5.14,1.81c-1.51.54-3.54,1.22-5.06,1.81l-4.92,1.86c-1.44.57-3.39,1.32-4.83,1.91l-4.6,1.89c-1.36.59-3.15,1.37-4.5,1.98l-4.22,1.93c-1.25.61-2.92,1.39-4.17,2.02l-3.72,1.93c-1.13.64-2.68,1.49-3.81,2.15.5-.3,1.03-.57,1.6-.76,1.01-.56,2.35-1.29,3.37-1.84,1.41-.73,137.36-60.33,123.67-16.98-2.1,6.69-8.98,14.06-20.42,21.91,9.37-3.91,17.64-7.89,24.1-11.68Z"/>
    <path class="cls-16" d="M180.72,31.45c9.77-5.7,13.95-10.13,13.08-12.95-.16-.42-.36-.96-.49-1.36-.19-.4-.42-.92-.61-1.3l-.71-1.22c-.23-.35-.56-.83-.82-1.18l-.92-1.08c-.31-.33-.7-.75-1.04-1.04l-1.11-.96c-.38-.28-.89-.64-1.27-.94l-1.36-.78c-.47-.24-1.09-.59-1.58-.8l-1.62-.66c-.63-.19-1.46-.47-2.07-.64l-2.05-.49c-1.01-.17-2.31-.38-3.3-.5l-2.73-.21c-3.6-.1-4.24-.12-8.11.05l-3.74.3c-4.41.47-7.58.83-14.56,2.03l-4.97.94c-1.55.31-3.61.73-5.18,1.06l-5.16,1.16c-1.56.38-3.68.89-5.27,1.29l-5.3,1.37c-1.6.43-3.7,1.04-5.33,1.44l-5.32,1.55c-1.6.47-3.84.83-5.32,1.6l-5.3,1.65c-1.56.52-3.74,1.01-5.21,1.72l-5.14,1.81c-1.51.54-3.54,1.22-5.06,1.81l-4.92,1.86c-1.44.57-3.39,1.32-4.83,1.91l-4.6,1.89c-1.36.59-3.15,1.37-4.5,1.98l-4.22,1.93c-1.25.61-2.92,1.39-4.17,2.02l-3.72,1.93c-1.13.64-2.68,1.49-3.81,2.15l3.01-1.69c15.53-8.34,139.29-57.62,128.11-19.53-3.01,10.25-14.89,18.94-18.78,21.81,7.68-3.37,14.49-6.71,19.98-9.94Z"/>
    <path class="cls-2" d="M180.72,31.45c9.77-5.7,13.95-10.13,13.08-12.95-.16-.42-.36-.96-.49-1.36-.19-.4-.42-.92-.61-1.3l-.71-1.22c-.23-.35-.56-.83-.82-1.18l-.92-1.08c-.31-.33-.7-.75-1.04-1.04l-1.11-.96c-.38-.28-.89-.64-1.27-.94l-1.36-.78c-.47-.24-1.09-.59-1.58-.8l-1.62-.66c-.63-.19-1.46-.47-2.07-.64l-2.05-.49c-1.01-.17-2.31-.38-3.3-.5l-2.73-.21c-3.6-.1-4.24-.12-8.11.05l-3.74.3c-4.41.47-7.58.83-14.56,2.03l-4.97.94c-1.55.31-3.61.73-5.18,1.06l-5.16,1.16c-1.56.38-3.68.89-5.27,1.29l-5.3,1.37c-1.6.43-3.7,1.04-5.33,1.44l-5.32,1.55c-1.6.47-3.84.83-5.32,1.6l-5.3,1.65c-1.56.52-3.74,1.01-5.21,1.72l-5.14,1.81-2.68.94.05-.02c18.73-6.62,111.33-37.78,94.61-1.72-1.72,3.67-5.77,9.63-15.46,17.08,6.05-2.76,11.45-5.51,15.97-8.15Z"/>
    <path class="cls-43" d="M180.72,31.45c9.77-5.7,13.95-10.13,13.08-12.95-.16-.42-.36-.96-.49-1.36-.19-.4-.42-.92-.61-1.3l-.71-1.22c-.23-.35-.56-.83-.82-1.18l-.92-1.08c-.31-.33-.7-.75-1.04-1.04l-1.11-.96c-.38-.28-.89-.64-1.27-.94l-1.36-.78c-.47-.24-1.09-.59-1.58-.8l-1.62-.66c-.63-.19-1.46-.47-2.07-.64l-2.05-.49c-1.01-.17-2.31-.38-3.3-.5l-2.73-.21c-3.6-.1-4.24-.12-8.11.05l-3.74.3c-4.41.47-7.58.83-14.56,2.03-.36.07-.89.16-1.27.23,1.23-.21,2.88-.49,4.15-.73,12.22-1.84,25.58-3.27,31.75.47,4.97,3.02,4.74,10.83-.56,18.51-3.63,5.3-8.38,9.3-10.93,11.45,4.4-2.1,8.39-4.17,11.85-6.2Z"/>
    <path class="cls-39" d="M180.72,31.45c9.77-5.7,13.95-10.13,13.08-12.95-.16-.42-.36-.96-.49-1.36-.19-.4-.42-.92-.61-1.3l-.71-1.22c-.23-.35-.56-.83-.82-1.18l-.92-1.08c-.31-.33-.7-.75-1.04-1.04l-1.11-.96c-.38-.28-.89-.64-1.27-.94l-1.36-.78c-.47-.24-1.09-.59-1.58-.8l-1.62-.66c-.63-.19-1.46-.47-2.07-.64l-2.05-.49c-1.01-.17-2.31-.38-3.3-.5l-2.73-.21q-3.98-.12-6.52-.02l3.01-.05c33.48.71,7.44,27.52,7.18,27.78-.9.85-1.82,1.72-2.73,2.54,2.76-1.41,5.32-2.78,7.65-4.15Z"/>
    <path class="cls-10" d="M180.72,31.45c9.77-5.7,13.95-10.13,13.08-12.95-.16-.42-.36-.96-.49-1.36-.19-.4-.42-.92-.61-1.3l-.71-1.22c-.23-.35-.56-.83-.82-1.18l-.92-1.08c-.31-.33-.7-.75-1.04-1.04l-1.11-.96c-.38-.28-.89-.64-1.27-.94l-1.36-.78c-.47-.24-1.09-.59-1.58-.8l-1.62-.66c-.63-.19-1.46-.47-2.07-.64l-2.05-.49c-.82-.14-1.89-.33-2.71-.43l1.51.21c17.27,3.39,9.78,18.28.5,27.45,1.13-.61,2.21-1.23,3.25-1.84Z"/>
    <path class="cls-40" d="M193.79,18.5c-.26-.8-.5-1.55-1.08-2.66l-.7-1.2c-.26-.36-.57-.83-.83-1.2l-.9-1.08c-.31-.31-.73-.73-1.06-1.04l-1.1-.96c-.4-.26-.9-.64-1.29-.9l-1.36-.82c-.47-.24-1.09-.57-1.56-.76l-1.63-.68-.99-.33.47.16c14.73,5.93,3.16,20.52.68,23.39,8.55-5.2,12.16-9.26,11.35-11.92Z"/>
    <path class="cls-45" d="M46.43,63.48c4.12,13.99,87.25-4.88,93.61-21.23,1.18-3.02-2.78-3.68-11.83-1.93-.63.12-73.47,17.15-78.45,19.36-1.06.49-3.93,1.75-3.32,3.81Z"/>
    <path class="cls-4" d="M49.42,63.29c.94,4.03,16.96,6.52,43.49.45,20.36-4.66,43.51-15.31,45.02-20.73.09-.26.1-.69,0-.97-.85-1.95-7.16-1.58-18.78,1.08-68.43,15.73-68.9,17.05-69.66,19.24-.1.26-.14.66-.07.94Z"/>
    <path class="cls-51" d="M48.4,40.79c-4.71,2.81-6.66,4.22-9.75,6.72l-1.69,1.55c-.66.66-1.53,1.56-2.14,2.24l-1.16,1.44c-.33.52-.83,1.18-1.16,1.74l-.78,1.37c-.23.49-.52,1.09-.73,1.58l-.5,1.37c-.14.45-.31,1.06-.42,1.51l-.26,1.39c-.05.43-.14,1.03-.17,1.48l-.02,1.37c.03.45.05,1.03.1,1.44l.23,1.39c.12.43.24.99.38,1.41.59,1.95,3.54,3.16,8.72,3.49-.02,0-.07-.02-.1-.02-7.56-3.51-10.15-8.51-7.66-14.82,2.17-5.56,5.65-9.47,20.52-17.97-1.25.26-2.38.71-3.41,1.3Z"/>
    <path class="cls-15" d="M53.14,63.86c2.94,3.65,20.52,4.28,39.7-.38,25.49-6.17,42.75-15.95,42.97-19.69.47-7.72-80.96,16.59-81.82,17.24-.97.71-1.82,1.62-.85,2.83Z"/>
    <path class="cls-7" d="M48.4,40.79c-4.71,2.81-6.66,4.22-9.75,6.72l-1.69,1.55c-.66.66-1.53,1.56-2.14,2.24l-1.16,1.44c-.33.52-.83,1.18-1.16,1.74l-.78,1.37c-.23.49-.52,1.09-.73,1.58l-.5,1.37c-.14.45-.31,1.06-.42,1.51l-.26,1.39c-.05.43-.14,1.03-.17,1.48l-.02,1.37c.03.45.05,1.03.1,1.44l.23,1.39c.12.43.24.99.38,1.41.49,1.67,2.76,2.8,6.62,3.3-.38-.21-.89-.49-1.25-.69-.78-.5-18.66-12.49,14.3-31.38-.56.21-1.09.47-1.6.76Z"/>
    <path class="cls-35" d="M56.58,63.45c2.68,4.22,21.65,3.37,36.19-.21,31.36-7.73,41.67-17.17,41.48-18.89-.35-3.06-12.81-.31-21.86,1.72-5.35,1.18-52.2,11.69-55.46,15.48-.4.45-.66,1.41-.35,1.89Z"/>
    <path class="cls-16" d="M30.06,60.32q-.37,1.86-.4,2.87l-.03,1.37c.03.43.07,1.03.1,1.48l.21,1.36c.12.43.24.99.4,1.41.42,1.39,2.03,2.4,4.76,2.99-.47-.36-1.11-.85-1.6-1.22-3.77-3.21-4.6-7.59-2.57-12.98l-.49,1.37-.38,1.35Z"/>
    <path class="cls-16" d="M48.4,40.79c-1.42.87-3.32,2.05-4.73,2.97l.49-.33c1.29-.83,3.06-1.91,4.38-2.71-.05.02-.09.05-.14.07Z"/>
    <path class="cls-14" d="M60.47,63.85c1.74,1.53,12.6,4.38,38.49-2.41,18.04-4.73,34.53-13.45,33.74-16.53-.68-2.52-12.93-.02-20.16,1.69-50.51,11.9-51.57,13.8-52.48,15.43-.14.26-.26.68-.19.97.05.3.33.64.59.85Z"/>
    <path class="cls-18" d="M63.47,63.37c4.69,7.77,62.03-6.55,67.44-16.85.16-.26.35-.75.21-1.06-1.37-3.39-67.32,13.12-67.85,17.01-.05.26.05.66.21.9Z"/>
    <path class="cls-2" d="M29.65,63.18c-.03,1.79-.03,1.91.09,2.83l.23,1.37c.09.42.21,1.01.36,1.41.35,1.09,1.39,1.95,3.18,2.54-.05-.02-.09-.05-.12-.09-1.84-1.81-4.38-4.29-3.51-10.04l-.17,1.39-.05.59Z"/>
    <path class="cls-38" d="M66.52,63.82c9.09,5.58,66.83-10.72,63.01-17.81-1.82-3.39-61.3,11.57-63.67,16-.14.28-.24.71-.16.97.1.33.52.64.82.83Z"/>
    <path class="cls-43" d="M29.74,66.02c.3,1.77.31,1.88.57,2.8.24.76.85,1.41,1.81,1.95-.17-.24-.42-.54-.61-.78-.97-1.44-1.91-3.13-1.89-6.1l.05,1.37.07.76Z"/>
    <path class="cls-13" d="M68.7,63.42c4.07,2.76,21.2.05,31.47-2.88,15.57-4.43,29.68-11.52,27.94-14.04-2.71-3.96-60.56,11.5-60.07,16.07.03.33.38.68.66.85Z"/>
    <path class="cls-49" d="M70.58,63.07c5.26,5.7,54.32-7.49,56.44-15.19.07-.3.03-.75-.16-.96-2.81-3.3-56.26,11.09-56.65,15.24,0,.3.17.7.37.9Z"/>
    <path class="cls-39" d="M30.33,68.81c.12.42.36.78.69,1.13-.21-.4-.45-.94-.66-1.36-.23-.61-.56-1.98-.59-2.21l.24,1.36.31,1.08Z"/>
    <path class="cls-26" d="M72.06,62.78c4.43,5.47,52.2-7.44,53.8-14.51.05-.3-.05-.73-.24-.92-3.01-2.92-52.75,10.49-53.78,14.49-.07.28.03.71.23.94Z"/>
    <path class="cls-19" d="M73.53,62.48c3.63,5.14,50.01-7.42,51.14-13.83.05-.28-.09-.7-.33-.9-3.18-2.59-49.31,9.87-50.88,13.76-.12.28-.09.73.07.97Z"/>
    <path class="cls-44" d="M76.59,62.84c11.47,2.85,46.39-9.82,46.93-13.8.03-.29-.21-.68-.42-.87-3.34-2.31-45.92,9.24-48.01,13.02-.14.26-.23.75-.07.97.28.45,1.08.56,1.56.68Z"/>
    <path class="cls-48" d="M77.03,62.06c9.42,4.52,45.04-9.12,45.32-12.65.02-.28-.28-.66-.52-.82-4.03-2.54-46.78,9.99-45.3,13.26.09.14.35.14.5.21Z"/>
    <path class="cls-27" d="M79.13,62.29c8.76,2.52,41.96-8.58,42.07-12.49.02-.31-.35-.66-.61-.8-4.05-2.09-44,9.68-42.76,12.58.17.42.89.59,1.3.71Z"/>
    <path class="cls-32" d="M80.37,62.02c8.46,2.29,39.81-8.24,39.76-11.88-.02-.31-.45-.63-.75-.76-.02-.02-3.54-1.34-28.18,5.96-.52.16-12.95,3.86-12.16,5.98.17.43.89.59,1.34.71Z"/>
    <path class="cls-33" d="M81.59,61.74c8.04,2.09,37.65-8.13,37.43-11.24-.26-3.79-35.81,6.95-38.21,9.45-.28.28-.68.75-.57,1.1.16.43.92.57,1.36.7Z"/>
    <path class="cls-25" d="M82.83,61.46c6.29,1.58,35.48-7.25,35.12-10.63-.43-3.61-33.21,6.36-35.79,8.83-.3.28-.8.73-.7,1.13.14.43.94.56,1.37.68Z"/>
    <path class="cls-41" d="M84.09,61.17c5.63,1.37,33.19-7.02,32.75-9.99-.54-3.49-31.35,6.38-33.31,8.17-.33.28-.96.73-.87,1.15.14.47.97.56,1.42.68Z"/>
    <path class="cls-37" d="M84.27,60.39c3.74,1.63,14.93-1.48,15.41-1.62,10.08-2.85,16.23-6.2,16.06-7.25-.26-1.56-9.02.23-17.1,2.45-8.25,2.26-15.01,5.11-14.74,6.24.02.12.24.12.37.17Z"/>
    <path class="cls-30" d="M86.77,60.53c7.16,1.18,28.22-6.85,27.87-8.67-.21-1.13-6.79-.19-15.95,2.33-10.67,2.92-12.42,4.67-13.48,5.72.47.19,1.08.54,1.56.63Z"/>
    <path class="cls-5" d="M88.14,60.2c1.75.28,18.54-1.89,25.21-7.96-4.85-1.18-22.21,3.15-26.81,7.35.5.17,1.09.54,1.6.61Z"/>
    <path class="cls-36" d="M89.52,59.86c.12.02,15.85-1.22,22.41-7.18-2.42-.47-3.63-.73-13.19,1.89-7.85,2.16-9.38,3.44-10.84,4.67.5.19,1.09.52,1.62.61Z"/>
    <path class="cls-47" d="M90.89,59.51c.89.14,8.55-1.44,8.62-1.46q8.67-2.83,11-4.93c-2.94-.47-3.48-.56-11.73,1.7-6.64,1.81-7.49,2.48-9.54,4.1.52.21,1.13.52,1.65.59Z"/>
    <path class="cls-28" d="M91.74,58.99c1.63.31,7.65-1.15,7.7-1.16q7.54-2.4,9.64-4.27-3.21-.42-10.23,1.49c-1.34.35-5.91,1.7-8.24,3.54.35.12.76.33,1.13.4Z"/>
    <path class="cls-9" d="M95.8,58.26c1.81-.14,9.05-1.77,11.89-4.31-5.06-.61-11.76,2.52-15.34,4.22,1.03.02,2.41.17,3.46.09Z"/>
    <path class="cls-29" d="M98.82,57.45q.71-.07,6.52-2.81c-1.89.31-4.52.5-6.36,1.03-1.23.33-2.66,1.22-3.79,1.75,1.09.02,2.55.14,3.63.03Z"/>
    <path class="cls-11" d="M99.17,56.66c.52-.12,1.13-.52,1.65-.76-.87.14-2.02.4-2.78.76.35,0,.8.07,1.13,0Z"/>
  </g>
  <path d="M114.61,32.17s-4.57-9.7-13.5-5.96c-6.99,2.9-5.53,12.35-5.53,12.35l19.03-6.39Z"/>
  <path d="M104.8,26.07s-21.15-15.92-50.74-11.35C24.37,19.28-3.88,40.9,4.14,116.1c6.55,60.92,11.16,109.83,8.76,137.25-1.18,13.1-4,22.4-4,22.4,0,0,10.43,1.09,13.59.97,3.08-.12,10.25-.73,10.25-.73,0,0,8.51-5.47,3.13-59.39-5.4-53.94-16.18-113.41-11.09-143.91,5.39-32.27,21.96-48.72,40.33-49.04,18.37-.33,31.96,6.12,31.96,6.12l7.73-3.7Z"/>
</svg>